G04 ================== begin FILE IDENTIFICATION RECORD ==================*
G04 Layout Name:  C:/Users/Administrator/Desktop/P1-Layout/allegro/STABILIZATOR_N17.brd*
G04 Film Name:    BOTTOM*
G04 File Format:  Gerber RS274X*
G04 File Origin:  Cadence Allegro 17.2-S025*
G04 Origin Date:  Fri Dec 08 20:06:13 2023*
G04 *
G04 Layer:  ETCH/BOTTOM*
G04 Layer:  PIN/BOTTOM*
G04 Layer:  VIA CLASS/BOTTOM*
G04 *
G04 Offset:    (0.00 0.00)*
G04 Mirror:    No*
G04 Mode:      Positive*
G04 Rotation:  0*
G04 FullContactRelief:  No*
G04 UndefLineWidth:     0.00*
G04 ================== end FILE IDENTIFICATION RECORD ====================*
%FSLAX25Y25*MOIN*%
%IR0*IPPOS*OFA0.00000B0.00000*MIA0B0*SFA1.00000B1.00000*%
%ADD10C,.024*%
%ADD11C,.02*%
%ADD12C,.016*%
G75*
%LPD*%
G75*
G54D10*
X31600Y37800D03*
X24800Y36100D03*
X7400Y51700D03*
X23800Y52200D03*
X23850Y87850D03*
X32750Y122250D03*
X13500Y107900D03*
X27100D03*
X47500Y37800D03*
X51800Y51500D03*
X59700Y57200D03*
X47500Y64700D03*
X47000Y80500D03*
Y94100D03*
X49000Y99900D03*
X46500Y105500D03*
X45700Y128800D03*
X37400Y108000D03*
X44900Y134400D03*
X63100Y10200D03*
X86700Y99800D03*
X65900Y92200D03*
X65600Y97500D03*
X81300Y115500D03*
X65650Y119550D03*
X107200Y31300D03*
Y16100D03*
X107500Y37900D03*
X100600Y78700D03*
X115800Y82100D03*
X105850Y98450D03*
X122400Y76400D03*
X104400Y113700D03*
X144600Y68900D03*
Y82500D03*
G54D11*
G01X49000Y99900D02*
X19400D01*
X12100Y92600D01*
Y39200D01*
X20100Y31200D01*
X49800D01*
X51800Y33200D01*
Y51500D01*
G01X23850Y87850D02*
Y54950D01*
X23800Y54900D01*
Y52200D01*
G01X51800Y51500D02*
X101100D01*
X107500Y45100D01*
Y37900D01*
G01X45700Y128800D02*
Y116300D01*
X37400Y108000D01*
G01X107200Y31300D02*
Y16100D01*
G54D12*
G01X63100Y10200D02*
X62300Y9400D01*
X10000D01*
X7400Y12000D01*
Y51700D01*
G01X47500Y64700D02*
X24800Y42000D01*
Y36100D01*
G01X13500Y107900D02*
X27100D01*
G01X47500Y37800D02*
X31600D01*
G01X122400Y76400D02*
X119000Y73000D01*
X101800D01*
X100200Y71400D01*
Y59400D01*
X98000Y57200D01*
X59700D01*
G01X47000Y94100D02*
Y80500D01*
G01X65900Y92200D02*
X64000Y94100D01*
X47000D01*
G01X46500Y105500D02*
X81000D01*
X86700Y99800D01*
G01X44900Y134400D02*
X32750Y122250D01*
G01X65600Y97500D02*
X67500Y95600D01*
X98400D01*
X101250Y98450D01*
X105850D01*
G01X100600Y78700D02*
X103100D01*
X103600Y78200D01*
X117099D01*
X120900Y82001D01*
Y106100D01*
X117600Y109400D01*
X87400D01*
X81300Y115500D01*
G01X104400Y113700D02*
Y120700D01*
X102800Y122300D01*
X68400D01*
X65650Y119550D01*
G01X105850Y98450D02*
Y83700D01*
X107450Y82100D01*
X115800D01*
G01X144600Y82500D02*
Y68900D01*
M02*
