M48
INCH,TZ
T01C.016
;LEADER: 12 
;HEADER: 
;CODE  : ASCII 
;FILE  : DRILL-1-2.drl for  ... layers TOP and BOTTOM
;DESIGN: STABILIZATOR_N17.brd
;T01 Holesize 1. = 16.000000 Tolerance = +0.000000/-0.000000 PLATED MILS Quantity = 36
%
G90
T01
X24800Y36100
X63100Y10200
X47500Y64700
X65650Y119550
X59700Y57200
X31600Y37800
X47500Y37800
X27100Y107900
X13500Y107900
X65600Y97500
X23800Y52200
X23850Y87850
X37400Y108000
X45700Y128800
X51800Y51500
X49000Y99900
X81300Y115500
X100600Y78700
X44900Y134400
X32750Y122250
X7400Y51700
X65900Y92200
X47000Y94100
X47000Y80500
X86700Y99800
X46500Y105500
X104400Y113700
X122400Y76400
X144600Y68900
X144600Y82500
X115800Y82100
X105850Y98450
X115800Y82100
X107500Y37900
X107200Y16100
X107200Y31300
M30
