G04 ================== begin FILE IDENTIFICATION RECORD ==================*
G04 Layout Name:  C:/Users/Administrator/Desktop/P1-Layout/allegro/STABILIZATOR_N17.brd*
G04 Film Name:    FAB*
G04 File Format:  Gerber RS274X*
G04 File Origin:  Cadence Allegro 17.2-S025*
G04 Origin Date:  Fri Dec 08 20:06:13 2023*
G04 *
G04 Layer:  MANUFACTURING/NCDRILL_LEGEND*
G04 Layer:  MANUFACTURING/NCDRILL_FIGURE*
G04 Layer:  MANUFACTURING/XSECTION_CHART*
G04 Layer:  MANUFACTURING/NCLEGEND-1-2*
G04 Layer:  DRAWING FORMAT/OUTLINE*
G04 Layer:  BOARD GEOMETRY/OUTLINE*
G04 Layer:  BOARD GEOMETRY/DIMENSION*
G04 Layer:  BOARD GEOMETRY/DESIGN_OUTLINE*
G04 *
G04 Offset:    (0.00 0.00)*
G04 Mirror:    No*
G04 Mode:      Positive*
G04 Rotation:  0*
G04 FullContactRelief:  No*
G04 UndefLineWidth:     0.00*
G04 ================== end FILE IDENTIFICATION RECORD ====================*
%FSLAX25Y25*MOIN*%
%IR0*IPPOS*OFA0.00000B0.00000*MIA0B0*SFA1.00000B1.00000*%
%AMMACRO10*
1,1,0.0,.025,0.0*
20,1,0.0,.025,0.0,.02462,-.004341,0.0*
1,1,0.0,.02462,-.004341*
20,1,0.0,.02462,-.004341,.023492,-.008551,0.0*
1,1,0.0,.023492,-.008551*
20,1,0.0,.023492,-.008551,.021651,-.0125,0.0*
1,1,0.0,.021651,-.0125*
20,1,0.0,.021651,-.0125,.019151,-.01607,0.0*
1,1,0.0,.019151,-.01607*
20,1,0.0,.019151,-.01607,.01607,-.019151,0.0*
1,1,0.0,.01607,-.019151*
20,1,0.0,.01607,-.019151,.0125,-.021651,0.0*
1,1,0.0,.0125,-.021651*
20,1,0.0,.0125,-.021651,.008551,-.023492,0.0*
1,1,0.0,.008551,-.023492*
20,1,0.0,.008551,-.023492,.004341,-.02462,0.0*
1,1,0.0,.004341,-.02462*
20,1,0.0,.004341,-.02462,0.0,-.025,0.0*
1,1,0.0,0.0,-.025*
20,1,0.0,0.0,-.025,-.004341,-.02462,0.0*
1,1,0.0,-.004341,-.02462*
20,1,0.0,-.004341,-.02462,-.008551,-.023492,0.0*
1,1,0.0,-.008551,-.023492*
20,1,0.0,-.008551,-.023492,-.0125,-.021651,0.0*
1,1,0.0,-.0125,-.021651*
20,1,0.0,-.0125,-.021651,-.01607,-.019151,0.0*
1,1,0.0,-.01607,-.019151*
20,1,0.0,-.01607,-.019151,-.019151,-.01607,0.0*
1,1,0.0,-.019151,-.01607*
20,1,0.0,-.019151,-.01607,-.021651,-.0125,0.0*
1,1,0.0,-.021651,-.0125*
20,1,0.0,-.021651,-.0125,-.023492,-.008551,0.0*
1,1,0.0,-.023492,-.008551*
20,1,0.0,-.023492,-.008551,-.02462,-.004341,0.0*
1,1,0.0,-.02462,-.004341*
20,1,0.0,-.02462,-.004341,-.025,0.0,0.0*
1,1,0.0,-.025,0.0*
20,1,0.0,-.025,0.0,-.02462,.004341,0.0*
1,1,0.0,-.02462,.004341*
20,1,0.0,-.02462,.004341,-.023492,.008551,0.0*
1,1,0.0,-.023492,.008551*
20,1,0.0,-.023492,.008551,-.021651,.0125,0.0*
1,1,0.0,-.021651,.0125*
20,1,0.0,-.021651,.0125,-.019151,.01607,0.0*
1,1,0.0,-.019151,.01607*
20,1,0.0,-.019151,.01607,-.01607,.019151,0.0*
1,1,0.0,-.01607,.019151*
20,1,0.0,-.01607,.019151,-.0125,.021651,0.0*
1,1,0.0,-.0125,.021651*
20,1,0.0,-.0125,.021651,-.008551,.023492,0.0*
1,1,0.0,-.008551,.023492*
20,1,0.0,-.008551,.023492,-.004341,.02462,0.0*
1,1,0.0,-.004341,.02462*
20,1,0.0,-.004341,.02462,0.0,.025,0.0*
1,1,0.0,0.0,.025*
20,1,0.0,0.0,.025,.004341,.02462,0.0*
1,1,0.0,.004341,.02462*
20,1,0.0,.004341,.02462,.008551,.023492,0.0*
1,1,0.0,.008551,.023492*
20,1,0.0,.008551,.023492,.0125,.021651,0.0*
1,1,0.0,.0125,.021651*
20,1,0.0,.0125,.021651,.01607,.019151,0.0*
1,1,0.0,.01607,.019151*
20,1,0.0,.01607,.019151,.019151,.01607,0.0*
1,1,0.0,.019151,.01607*
20,1,0.0,.019151,.01607,.021651,.0125,0.0*
1,1,0.0,.021651,.0125*
20,1,0.0,.021651,.0125,.023492,.008551,0.0*
1,1,0.0,.023492,.008551*
20,1,0.0,.023492,.008551,.02462,.004341,0.0*
1,1,0.0,.02462,.004341*
20,1,0.0,.02462,.004341,.025,0.0,0.0*
1,1,0.0,.025,0.0*
1,1,0.0,.0125,0.0*
20,1,0.0,.0125,0.0,-.0125,0.0,0.0*
1,1,0.0,-.0125,0.0*
1,1,0.0,0.0,.0125*
20,1,0.0,0.0,.0125,0.0,-.0125,0.0*
1,1,0.0,0.0,-.0125*
%
%ADD10MACRO10*%
%ADD11C,.005*%
G75*
%LPD*%
G75*
G36*
G01X-101350Y181458D02*
Y177119D01*
X-98850D01*
Y-12602D01*
X-101350D01*
Y-16941D01*
X-86350D01*
Y-12602D01*
X-88850D01*
Y177119D01*
X-86350D01*
Y181458D01*
X-101350D01*
G37*
G36*
G01X-121350Y-16940D02*
Y-12601D01*
X-61350D01*
Y-16940D01*
X-121350D01*
G37*
G36*
G01Y177119D02*
Y181458D01*
X-61350D01*
Y177119D01*
X-121350D01*
G37*
G54D10*
X31600Y37800D03*
X24800Y36100D03*
X7400Y51700D03*
X23800Y52200D03*
X23850Y87850D03*
X32750Y122250D03*
X13500Y107900D03*
X27100D03*
X47500Y37800D03*
X51800Y51500D03*
X59700Y57200D03*
X47500Y64700D03*
X47000Y80500D03*
Y94100D03*
X49000Y99900D03*
X46500Y105500D03*
X45700Y128800D03*
X37400Y108000D03*
X44900Y134400D03*
X36600Y185550D03*
X63100Y10200D03*
X86700Y99800D03*
X65900Y92200D03*
X65600Y97500D03*
X81300Y115500D03*
X65650Y119550D03*
X107200Y31300D03*
Y16100D03*
X107500Y37900D03*
X100600Y78700D03*
X115800Y82100D03*
X105850Y98450D03*
X122400Y76400D03*
X104400Y113700D03*
X144600Y68900D03*
Y82500D03*
G54D11*
G01X-124437Y-27090D02*
Y-24390D01*
X-123903D01*
X-123690Y-24525D01*
X-123530Y-24705D01*
X-123397Y-24975D01*
X-123290Y-25290D01*
X-123263Y-25740D01*
X-123290Y-26190D01*
X-123397Y-26505D01*
X-123530Y-26775D01*
X-123690Y-26955D01*
X-123903Y-27090D01*
X-124437D01*
G01X-120717D02*
X-121783D01*
Y-24390D01*
X-120717D01*
G01X-121143Y-25695D02*
X-121783D01*
G01X-119210Y-26730D02*
X-118997Y-26955D01*
X-118757Y-27090D01*
X-118543D01*
X-118330Y-26955D01*
X-118170Y-26730D01*
X-118090Y-26415D01*
X-118143Y-26100D01*
X-118277Y-25830D01*
X-118517Y-25650D01*
X-118837Y-25560D01*
X-119023Y-25380D01*
X-119103Y-25065D01*
X-119050Y-24750D01*
X-118917Y-24525D01*
X-118730Y-24390D01*
X-118543D01*
X-118357Y-24480D01*
X-118197Y-24705D01*
G01X-116370Y-24390D02*
X-115730D01*
G01X-116050D02*
Y-27090D01*
G01X-116370D02*
X-115730D01*
G01X-113290Y-25740D02*
X-112757D01*
Y-26550D01*
X-112917Y-26820D01*
X-113103Y-27000D01*
X-113370Y-27090D01*
X-113637Y-27000D01*
X-113823Y-26820D01*
X-113983Y-26550D01*
X-114090Y-26235D01*
X-114143Y-25875D01*
Y-25560D01*
X-114090Y-25290D01*
X-113983Y-24975D01*
X-113823Y-24705D01*
X-113663Y-24525D01*
X-113450Y-24390D01*
X-113263D01*
X-113050Y-24480D01*
X-112890Y-24660D01*
G01X-111463Y-27090D02*
Y-24390D01*
X-110237Y-27090D01*
Y-24390D01*
G01X-105063Y-24615D02*
X-105223Y-24480D01*
X-105410Y-24390D01*
X-105623D01*
X-105863Y-24525D01*
X-106050Y-24750D01*
X-106183Y-25020D01*
X-106290Y-25470D01*
X-106317Y-25875D01*
X-106263Y-26280D01*
X-106183Y-26550D01*
X-106023Y-26820D01*
X-105837Y-27000D01*
X-105650Y-27090D01*
X-105463D01*
X-105277Y-27000D01*
X-105117Y-26865D01*
X-104983Y-26685D01*
G01X-103583Y-27090D02*
Y-24390D01*
X-102917D01*
X-102703Y-24525D01*
X-102570Y-24705D01*
X-102517Y-25065D01*
X-102570Y-25425D01*
X-102730Y-25650D01*
X-102917Y-25785D01*
X-103583D01*
G01X-102917D02*
X-102517Y-27090D01*
G01X-100450D02*
X-100663Y-27045D01*
X-100850Y-26865D01*
X-101010Y-26595D01*
X-101117Y-26280D01*
X-101170Y-25920D01*
Y-25560D01*
X-101117Y-25200D01*
X-101010Y-24885D01*
X-100850Y-24615D01*
X-100663Y-24435D01*
X-100450Y-24390D01*
X-100237Y-24435D01*
X-100050Y-24615D01*
X-99890Y-24885D01*
X-99783Y-25200D01*
X-99730Y-25560D01*
Y-25920D01*
X-99783Y-26280D01*
X-99890Y-26595D01*
X-100050Y-26865D01*
X-100237Y-27045D01*
X-100450Y-27090D01*
G01X-98410Y-26730D02*
X-98197Y-26955D01*
X-97957Y-27090D01*
X-97743D01*
X-97530Y-26955D01*
X-97370Y-26730D01*
X-97290Y-26415D01*
X-97343Y-26100D01*
X-97477Y-25830D01*
X-97717Y-25650D01*
X-98037Y-25560D01*
X-98223Y-25380D01*
X-98303Y-25065D01*
X-98250Y-24750D01*
X-98117Y-24525D01*
X-97930Y-24390D01*
X-97743D01*
X-97557Y-24480D01*
X-97397Y-24705D01*
G01X-95810Y-26730D02*
X-95597Y-26955D01*
X-95357Y-27090D01*
X-95143D01*
X-94930Y-26955D01*
X-94770Y-26730D01*
X-94690Y-26415D01*
X-94743Y-26100D01*
X-94877Y-25830D01*
X-95117Y-25650D01*
X-95437Y-25560D01*
X-95623Y-25380D01*
X-95703Y-25065D01*
X-95650Y-24750D01*
X-95517Y-24525D01*
X-95330Y-24390D01*
X-95143D01*
X-94957Y-24480D01*
X-94797Y-24705D01*
G01X-90610Y-26730D02*
X-90397Y-26955D01*
X-90157Y-27090D01*
X-89943D01*
X-89730Y-26955D01*
X-89570Y-26730D01*
X-89490Y-26415D01*
X-89543Y-26100D01*
X-89677Y-25830D01*
X-89917Y-25650D01*
X-90237Y-25560D01*
X-90423Y-25380D01*
X-90503Y-25065D01*
X-90450Y-24750D01*
X-90317Y-24525D01*
X-90130Y-24390D01*
X-89943D01*
X-89757Y-24480D01*
X-89597Y-24705D01*
G01X-86917Y-27090D02*
X-87983D01*
Y-24390D01*
X-86917D01*
G01X-87343Y-25695D02*
X-87983D01*
G01X-84263Y-24615D02*
X-84423Y-24480D01*
X-84610Y-24390D01*
X-84823D01*
X-85063Y-24525D01*
X-85250Y-24750D01*
X-85383Y-25020D01*
X-85490Y-25470D01*
X-85517Y-25875D01*
X-85463Y-26280D01*
X-85383Y-26550D01*
X-85223Y-26820D01*
X-85037Y-27000D01*
X-84850Y-27090D01*
X-84663D01*
X-84477Y-27000D01*
X-84317Y-26865D01*
X-84183Y-26685D01*
G01X-82250Y-24390D02*
Y-27090D01*
G01X-82863Y-24390D02*
X-81637D01*
G01X-79970D02*
X-79330D01*
G01X-79650D02*
Y-27090D01*
G01X-79970D02*
X-79330D01*
G01X-77050D02*
X-77263Y-27045D01*
X-77450Y-26865D01*
X-77610Y-26595D01*
X-77717Y-26280D01*
X-77770Y-25920D01*
Y-25560D01*
X-77717Y-25200D01*
X-77610Y-24885D01*
X-77450Y-24615D01*
X-77263Y-24435D01*
X-77050Y-24390D01*
X-76837Y-24435D01*
X-76650Y-24615D01*
X-76490Y-24885D01*
X-76383Y-25200D01*
X-76330Y-25560D01*
Y-25920D01*
X-76383Y-26280D01*
X-76490Y-26595D01*
X-76650Y-26865D01*
X-76837Y-27045D01*
X-77050Y-27090D01*
G01X-75063D02*
Y-24390D01*
X-73837Y-27090D01*
Y-24390D01*
G01X-68663Y-24615D02*
X-68823Y-24480D01*
X-69010Y-24390D01*
X-69223D01*
X-69463Y-24525D01*
X-69650Y-24750D01*
X-69783Y-25020D01*
X-69890Y-25470D01*
X-69917Y-25875D01*
X-69863Y-26280D01*
X-69783Y-26550D01*
X-69623Y-26820D01*
X-69437Y-27000D01*
X-69250Y-27090D01*
X-69063D01*
X-68877Y-27000D01*
X-68717Y-26865D01*
X-68583Y-26685D01*
G01X-67210Y-27090D02*
Y-24390D01*
G01X-66090D02*
Y-27090D01*
G01Y-25740D02*
X-67210D01*
G01X-64717Y-27090D02*
X-64050Y-24390D01*
X-63383Y-27090D01*
G01X-63623Y-26145D02*
X-64477D01*
G01X-61983Y-27090D02*
Y-24390D01*
X-61317D01*
X-61103Y-24525D01*
X-60970Y-24705D01*
X-60917Y-25065D01*
X-60970Y-25425D01*
X-61130Y-25650D01*
X-61317Y-25785D01*
X-61983D01*
G01X-61317D02*
X-60917Y-27090D01*
G01X-58850Y-24390D02*
Y-27090D01*
G01X-59463Y-24390D02*
X-58237D01*
G01X-125950Y-27990D02*
X-124350D01*
G01X-123350D02*
X-121750D01*
G01X-120750D02*
X-119150D01*
G01X-118150D02*
X-116550D01*
G01X-115550D02*
X-113950D01*
G01X-112950D02*
X-111350D01*
G01X-110350D02*
X-108750D01*
G01X-107750D02*
X-106150D01*
G01X-105150D02*
X-103550D01*
G01X-102550D02*
X-100950D01*
G01X-99950D02*
X-98350D01*
G01X-97350D02*
X-95750D01*
G01X-94750D02*
X-93150D01*
G01X-92150D02*
X-90550D01*
G01X-89550D02*
X-87950D01*
G01X-86950D02*
X-85350D01*
G01X-84350D02*
X-82750D01*
G01X-81750D02*
X-80150D01*
G01X-79150D02*
X-77550D01*
G01X-76550D02*
X-74950D01*
G01X-73950D02*
X-72350D01*
G01X-71350D02*
X-69750D01*
G01X-68750D02*
X-67150D01*
G01X-66150D02*
X-64550D01*
G01X-63550D02*
X-61950D01*
G01X-60950D02*
X-59350D01*
G01X-58350D02*
X-56750D01*
G01X-118650Y-29250D02*
Y-31950D01*
G01X-119263Y-29250D02*
X-118037D01*
G01X-116050Y-31950D02*
X-116263Y-31905D01*
X-116450Y-31725D01*
X-116610Y-31455D01*
X-116717Y-31140D01*
X-116770Y-30780D01*
Y-30420D01*
X-116717Y-30060D01*
X-116610Y-29745D01*
X-116450Y-29475D01*
X-116263Y-29295D01*
X-116050Y-29250D01*
X-115837Y-29295D01*
X-115650Y-29475D01*
X-115490Y-29745D01*
X-115383Y-30060D01*
X-115330Y-30420D01*
Y-30780D01*
X-115383Y-31140D01*
X-115490Y-31455D01*
X-115650Y-31725D01*
X-115837Y-31905D01*
X-116050Y-31950D01*
G01X-113450Y-29250D02*
Y-31950D01*
G01X-114063Y-29250D02*
X-112837D01*
G01X-111517Y-31950D02*
X-110850Y-29250D01*
X-110183Y-31950D01*
G01X-110423Y-31005D02*
X-111277D01*
G01X-108783Y-29250D02*
Y-31950D01*
X-107717D01*
G01X-103050Y-29250D02*
Y-31950D01*
G01X-103663Y-29250D02*
X-102437D01*
G01X-101010Y-31950D02*
Y-29250D01*
G01X-99890D02*
Y-31950D01*
G01Y-30600D02*
X-101010D01*
G01X-98170Y-29250D02*
X-97530D01*
G01X-97850D02*
Y-31950D01*
G01X-98170D02*
X-97530D01*
G01X-94663Y-29475D02*
X-94823Y-29340D01*
X-95010Y-29250D01*
X-95223D01*
X-95463Y-29385D01*
X-95650Y-29610D01*
X-95783Y-29880D01*
X-95890Y-30330D01*
X-95917Y-30735D01*
X-95863Y-31140D01*
X-95783Y-31410D01*
X-95623Y-31680D01*
X-95437Y-31860D01*
X-95250Y-31950D01*
X-95063D01*
X-94877Y-31860D01*
X-94717Y-31725D01*
X-94583Y-31545D01*
G01X-93237Y-31950D02*
Y-29250D01*
G01X-92223D02*
X-93237Y-30915D01*
G01X-92063Y-31950D02*
X-92783Y-30150D01*
G01X-90663Y-31950D02*
Y-29250D01*
X-89437Y-31950D01*
Y-29250D01*
G01X-86917Y-31950D02*
X-87983D01*
Y-29250D01*
X-86917D01*
G01X-87343Y-30555D02*
X-87983D01*
G01X-85410Y-31590D02*
X-85197Y-31815D01*
X-84957Y-31950D01*
X-84743D01*
X-84530Y-31815D01*
X-84370Y-31590D01*
X-84290Y-31275D01*
X-84343Y-30960D01*
X-84477Y-30690D01*
X-84717Y-30510D01*
X-85037Y-30420D01*
X-85223Y-30240D01*
X-85303Y-29925D01*
X-85250Y-29610D01*
X-85117Y-29385D01*
X-84930Y-29250D01*
X-84743D01*
X-84557Y-29340D01*
X-84397Y-29565D01*
G01X-82810Y-31590D02*
X-82597Y-31815D01*
X-82357Y-31950D01*
X-82143D01*
X-81930Y-31815D01*
X-81770Y-31590D01*
X-81690Y-31275D01*
X-81743Y-30960D01*
X-81877Y-30690D01*
X-82117Y-30510D01*
X-82437Y-30420D01*
X-82623Y-30240D01*
X-82703Y-29925D01*
X-82650Y-29610D01*
X-82517Y-29385D01*
X-82330Y-29250D01*
X-82143D01*
X-81957Y-29340D01*
X-81797Y-29565D01*
G01X-77557Y-30825D02*
X-77370Y-30510D01*
X-77210Y-30330D01*
X-76997Y-30240D01*
X-76810Y-30330D01*
X-76677Y-30510D01*
X-76570Y-30780D01*
X-76543Y-31095D01*
X-76570Y-31365D01*
X-76677Y-31635D01*
X-76837Y-31860D01*
X-77023Y-31950D01*
X-77237Y-31860D01*
X-77423Y-31590D01*
X-77530Y-31185D01*
X-77557Y-30735D01*
X-77503Y-30150D01*
X-77423Y-29835D01*
X-77290Y-29520D01*
X-77103Y-29295D01*
X-76917Y-29250D01*
X-76730Y-29340D01*
X-76597Y-29565D01*
G01X-74130Y-31950D02*
Y-29250D01*
X-75117Y-31185D01*
X-73783D01*
G01X-69943Y-31950D02*
Y-29250D01*
X-69250Y-31500D01*
X-68557Y-29250D01*
Y-31950D01*
G01X-66970Y-29250D02*
X-66330D01*
G01X-66650D02*
Y-31950D01*
G01X-66970D02*
X-66330D01*
G01X-64583Y-29250D02*
Y-31950D01*
X-63517D01*
G01X-93850Y184958D02*
X-96550D01*
X-96010Y184638D01*
G01X-93850D02*
Y185278D01*
G01X-94750Y187211D02*
Y187905D01*
G01X-96100Y189651D02*
X-96370Y189811D01*
X-96505Y189998D01*
X-96550Y190211D01*
X-96460Y190478D01*
X-96235Y190665D01*
X-95965Y190718D01*
X-95695Y190691D01*
X-95470Y190585D01*
X-95020Y190051D01*
X-94705Y189811D01*
X-94255Y189651D01*
X-93850Y189598D01*
Y190718D01*
G01X-53337Y-20630D02*
X-52163Y-18650D01*
G01X-52750Y-18290D02*
Y-20990D01*
G01X-52163Y-20630D02*
X-53337Y-18650D01*
G01X-53550Y-19640D02*
X-51950D01*
G01X-45510Y-20180D02*
X-45297Y-20405D01*
X-45057Y-20540D01*
X-44843D01*
X-44630Y-20405D01*
X-44470Y-20180D01*
X-44390Y-19865D01*
X-44443Y-19550D01*
X-44577Y-19280D01*
X-44817Y-19100D01*
X-45137Y-19010D01*
X-45323Y-18830D01*
X-45403Y-18515D01*
X-45350Y-18200D01*
X-45217Y-17975D01*
X-45030Y-17840D01*
X-44843D01*
X-44657Y-17930D01*
X-44497Y-18155D01*
G01X-42937Y-17840D02*
Y-19775D01*
X-42830Y-20180D01*
X-42617Y-20450D01*
X-42350Y-20540D01*
X-42083Y-20450D01*
X-41870Y-20180D01*
X-41763Y-19775D01*
Y-17840D01*
G01X-40283Y-20540D02*
Y-17840D01*
X-39617D01*
X-39403Y-17975D01*
X-39270Y-18155D01*
X-39217Y-18515D01*
X-39270Y-18875D01*
X-39430Y-19100D01*
X-39617Y-19235D01*
X-40283D01*
G01X-39617D02*
X-39217Y-20540D01*
G01X-37657D02*
Y-17840D01*
X-36643D01*
G01X-37017Y-19145D02*
X-37657D01*
G01X-35217Y-20540D02*
X-34550Y-17840D01*
X-33883Y-20540D01*
G01X-34123Y-19595D02*
X-34977D01*
G01X-31363Y-18065D02*
X-31523Y-17930D01*
X-31710Y-17840D01*
X-31923D01*
X-32163Y-17975D01*
X-32350Y-18200D01*
X-32483Y-18470D01*
X-32590Y-18920D01*
X-32617Y-19325D01*
X-32563Y-19730D01*
X-32483Y-20000D01*
X-32323Y-20270D01*
X-32137Y-20450D01*
X-31950Y-20540D01*
X-31763D01*
X-31577Y-20450D01*
X-31417Y-20315D01*
X-31283Y-20135D01*
G01X-28817Y-20540D02*
X-29883D01*
Y-17840D01*
X-28817D01*
G01X-29243Y-19145D02*
X-29883D01*
G01X-58483Y-13501D02*
Y-16201D01*
X-57417D01*
G01X-55857Y-13951D02*
X-55697Y-13681D01*
X-55510Y-13546D01*
X-55297Y-13501D01*
X-55030Y-13591D01*
X-54843Y-13816D01*
X-54790Y-14086D01*
X-54817Y-14356D01*
X-54923Y-14581D01*
X-55457Y-15031D01*
X-55697Y-15346D01*
X-55857Y-15796D01*
X-55910Y-16201D01*
X-54790D01*
G01X-49937Y-14761D02*
X-49830Y-14626D01*
X-49750Y-14401D01*
X-49697Y-14086D01*
X-49750Y-13816D01*
X-49857Y-13636D01*
X-50043Y-13501D01*
X-50763D01*
Y-16201D01*
X-49883D01*
X-49697Y-16021D01*
X-49590Y-15751D01*
X-49537Y-15436D01*
X-49590Y-15121D01*
X-49750Y-14851D01*
X-49937Y-14761D01*
X-50763D01*
G01X-47550Y-16201D02*
X-47763Y-16156D01*
X-47950Y-15976D01*
X-48110Y-15706D01*
X-48217Y-15391D01*
X-48270Y-15031D01*
Y-14671D01*
X-48217Y-14311D01*
X-48110Y-13996D01*
X-47950Y-13726D01*
X-47763Y-13546D01*
X-47550Y-13501D01*
X-47337Y-13546D01*
X-47150Y-13726D01*
X-46990Y-13996D01*
X-46883Y-14311D01*
X-46830Y-14671D01*
Y-15031D01*
X-46883Y-15391D01*
X-46990Y-15706D01*
X-47150Y-15976D01*
X-47337Y-16156D01*
X-47550Y-16201D01*
G01X-44950Y-13501D02*
Y-16201D01*
G01X-45563Y-13501D02*
X-44337D01*
G01X-42350D02*
Y-16201D01*
G01X-42963Y-13501D02*
X-41737D01*
G01X-39750Y-16201D02*
X-39963Y-16156D01*
X-40150Y-15976D01*
X-40310Y-15706D01*
X-40417Y-15391D01*
X-40470Y-15031D01*
Y-14671D01*
X-40417Y-14311D01*
X-40310Y-13996D01*
X-40150Y-13726D01*
X-39963Y-13546D01*
X-39750Y-13501D01*
X-39537Y-13546D01*
X-39350Y-13726D01*
X-39190Y-13996D01*
X-39083Y-14311D01*
X-39030Y-14671D01*
Y-15031D01*
X-39083Y-15391D01*
X-39190Y-15706D01*
X-39350Y-15976D01*
X-39537Y-16156D01*
X-39750Y-16201D01*
G01X-37843D02*
Y-13501D01*
X-37150Y-15751D01*
X-36457Y-13501D01*
Y-16201D01*
G01X-31363Y-13726D02*
X-31523Y-13591D01*
X-31710Y-13501D01*
X-31923D01*
X-32163Y-13636D01*
X-32350Y-13861D01*
X-32483Y-14131D01*
X-32590Y-14581D01*
X-32617Y-14986D01*
X-32563Y-15391D01*
X-32483Y-15661D01*
X-32323Y-15931D01*
X-32137Y-16111D01*
X-31950Y-16201D01*
X-31763D01*
X-31577Y-16111D01*
X-31417Y-15976D01*
X-31283Y-15796D01*
G01X-29350Y-16201D02*
X-29563Y-16156D01*
X-29750Y-15976D01*
X-29910Y-15706D01*
X-30017Y-15391D01*
X-30070Y-15031D01*
Y-14671D01*
X-30017Y-14311D01*
X-29910Y-13996D01*
X-29750Y-13726D01*
X-29563Y-13546D01*
X-29350Y-13501D01*
X-29137Y-13546D01*
X-28950Y-13726D01*
X-28790Y-13996D01*
X-28683Y-14311D01*
X-28630Y-14671D01*
Y-15031D01*
X-28683Y-15391D01*
X-28790Y-15706D01*
X-28950Y-15976D01*
X-29137Y-16156D01*
X-29350Y-16201D01*
G01X-27363D02*
Y-13501D01*
X-26137Y-16201D01*
Y-13501D01*
G01X-24737Y-16201D02*
Y-13501D01*
X-24203D01*
X-23990Y-13636D01*
X-23830Y-13816D01*
X-23697Y-14086D01*
X-23590Y-14401D01*
X-23563Y-14851D01*
X-23590Y-15301D01*
X-23697Y-15616D01*
X-23830Y-15886D01*
X-23990Y-16066D01*
X-24203Y-16201D01*
X-24737D01*
G01X-22137Y-13501D02*
Y-15436D01*
X-22030Y-15841D01*
X-21817Y-16111D01*
X-21550Y-16201D01*
X-21283Y-16111D01*
X-21070Y-15841D01*
X-20963Y-15436D01*
Y-13501D01*
G01X-18363Y-13726D02*
X-18523Y-13591D01*
X-18710Y-13501D01*
X-18923D01*
X-19163Y-13636D01*
X-19350Y-13861D01*
X-19483Y-14131D01*
X-19590Y-14581D01*
X-19617Y-14986D01*
X-19563Y-15391D01*
X-19483Y-15661D01*
X-19323Y-15931D01*
X-19137Y-16111D01*
X-18950Y-16201D01*
X-18763D01*
X-18577Y-16111D01*
X-18417Y-15976D01*
X-18283Y-15796D01*
G01X-16350Y-13501D02*
Y-16201D01*
G01X-16963Y-13501D02*
X-15737D01*
G01X-13750Y-16201D02*
X-13963Y-16156D01*
X-14150Y-15976D01*
X-14310Y-15706D01*
X-14417Y-15391D01*
X-14470Y-15031D01*
Y-14671D01*
X-14417Y-14311D01*
X-14310Y-13996D01*
X-14150Y-13726D01*
X-13963Y-13546D01*
X-13750Y-13501D01*
X-13537Y-13546D01*
X-13350Y-13726D01*
X-13190Y-13996D01*
X-13083Y-14311D01*
X-13030Y-14671D01*
Y-15031D01*
X-13083Y-15391D01*
X-13190Y-15706D01*
X-13350Y-15976D01*
X-13537Y-16156D01*
X-13750Y-16201D01*
G01X-11683D02*
Y-13501D01*
X-11017D01*
X-10803Y-13636D01*
X-10670Y-13816D01*
X-10617Y-14176D01*
X-10670Y-14536D01*
X-10830Y-14761D01*
X-11017Y-14896D01*
X-11683D01*
G01X-11017D02*
X-10617Y-16201D01*
G01X-53337Y82169D02*
X-52163Y84149D01*
G01X-52750Y84509D02*
Y81809D01*
G01X-52163Y82169D02*
X-53337Y84149D01*
G01X-53550Y83159D02*
X-51950D01*
G01X-45537Y82259D02*
Y84959D01*
X-45003D01*
X-44790Y84824D01*
X-44630Y84644D01*
X-44497Y84374D01*
X-44390Y84059D01*
X-44363Y83609D01*
X-44390Y83159D01*
X-44497Y82844D01*
X-44630Y82574D01*
X-44790Y82394D01*
X-45003Y82259D01*
X-45537D01*
G01X-42670Y84959D02*
X-42030D01*
G01X-42350D02*
Y82259D01*
G01X-42670D02*
X-42030D01*
G01X-39217D02*
X-40283D01*
Y84959D01*
X-39217D01*
G01X-39643Y83654D02*
X-40283D01*
G01X-37683Y84959D02*
Y82259D01*
X-36617D01*
G01X-34017D02*
X-35083D01*
Y84959D01*
X-34017D01*
G01X-34443Y83654D02*
X-35083D01*
G01X-31363Y84734D02*
X-31523Y84869D01*
X-31710Y84959D01*
X-31923D01*
X-32163Y84824D01*
X-32350Y84599D01*
X-32483Y84329D01*
X-32590Y83879D01*
X-32617Y83474D01*
X-32563Y83069D01*
X-32483Y82799D01*
X-32323Y82529D01*
X-32137Y82349D01*
X-31950Y82259D01*
X-31763D01*
X-31577Y82349D01*
X-31417Y82484D01*
X-31283Y82664D01*
G01X-29350Y84959D02*
Y82259D01*
G01X-29963Y84959D02*
X-28737D01*
G01X-27283Y82259D02*
Y84959D01*
X-26617D01*
X-26403Y84824D01*
X-26270Y84644D01*
X-26217Y84284D01*
X-26270Y83924D01*
X-26430Y83699D01*
X-26617Y83564D01*
X-27283D01*
G01X-26617D02*
X-26217Y82259D01*
G01X-24470Y84959D02*
X-23830D01*
G01X-24150D02*
Y82259D01*
G01X-24470D02*
X-23830D01*
G01X-20963Y84734D02*
X-21123Y84869D01*
X-21310Y84959D01*
X-21523D01*
X-21763Y84824D01*
X-21950Y84599D01*
X-22083Y84329D01*
X-22190Y83879D01*
X-22217Y83474D01*
X-22163Y83069D01*
X-22083Y82799D01*
X-21923Y82529D01*
X-21737Y82349D01*
X-21550Y82259D01*
X-21363D01*
X-21177Y82349D01*
X-21017Y82484D01*
X-20883Y82664D01*
G01X-53337Y182268D02*
X-52163Y184248D01*
G01X-52750Y184608D02*
Y181908D01*
G01X-52163Y182268D02*
X-53337Y184248D01*
G01X-53550Y183258D02*
X-51950D01*
G01X-45510Y182718D02*
X-45297Y182493D01*
X-45057Y182358D01*
X-44843D01*
X-44630Y182493D01*
X-44470Y182718D01*
X-44390Y183033D01*
X-44443Y183348D01*
X-44577Y183618D01*
X-44817Y183798D01*
X-45137Y183888D01*
X-45323Y184068D01*
X-45403Y184383D01*
X-45350Y184698D01*
X-45217Y184923D01*
X-45030Y185058D01*
X-44843D01*
X-44657Y184968D01*
X-44497Y184743D01*
G01X-42937Y185058D02*
Y183123D01*
X-42830Y182718D01*
X-42617Y182448D01*
X-42350Y182358D01*
X-42083Y182448D01*
X-41870Y182718D01*
X-41763Y183123D01*
Y185058D01*
G01X-40283Y182358D02*
Y185058D01*
X-39617D01*
X-39403Y184923D01*
X-39270Y184743D01*
X-39217Y184383D01*
X-39270Y184023D01*
X-39430Y183798D01*
X-39617Y183663D01*
X-40283D01*
G01X-39617D02*
X-39217Y182358D01*
G01X-37657D02*
Y185058D01*
X-36643D01*
G01X-37017Y183753D02*
X-37657D01*
G01X-35217Y182358D02*
X-34550Y185058D01*
X-33883Y182358D01*
G01X-34123Y183303D02*
X-34977D01*
G01X-31363Y184833D02*
X-31523Y184968D01*
X-31710Y185058D01*
X-31923D01*
X-32163Y184923D01*
X-32350Y184698D01*
X-32483Y184428D01*
X-32590Y183978D01*
X-32617Y183573D01*
X-32563Y183168D01*
X-32483Y182898D01*
X-32323Y182628D01*
X-32137Y182448D01*
X-31950Y182358D01*
X-31763D01*
X-31577Y182448D01*
X-31417Y182583D01*
X-31283Y182763D01*
G01X-28817Y182358D02*
X-29883D01*
Y185058D01*
X-28817D01*
G01X-29243Y183753D02*
X-29883D01*
G01X-58483Y180558D02*
Y177858D01*
X-57417D01*
G01X-55350D02*
Y180558D01*
X-55670Y180018D01*
G01Y177858D02*
X-55030D01*
G01X-50150Y180558D02*
Y177858D01*
G01X-50763Y180558D02*
X-49537D01*
G01X-47550Y177858D02*
X-47763Y177903D01*
X-47950Y178083D01*
X-48110Y178353D01*
X-48217Y178668D01*
X-48270Y179028D01*
Y179388D01*
X-48217Y179748D01*
X-48110Y180063D01*
X-47950Y180333D01*
X-47763Y180513D01*
X-47550Y180558D01*
X-47337Y180513D01*
X-47150Y180333D01*
X-46990Y180063D01*
X-46883Y179748D01*
X-46830Y179388D01*
Y179028D01*
X-46883Y178668D01*
X-46990Y178353D01*
X-47150Y178083D01*
X-47337Y177903D01*
X-47550Y177858D01*
G01X-45483D02*
Y180558D01*
X-44843D01*
X-44630Y180423D01*
X-44470Y180108D01*
X-44417Y179748D01*
X-44470Y179388D01*
X-44603Y179118D01*
X-44843Y178983D01*
X-45483D01*
G01X-39163Y180333D02*
X-39323Y180468D01*
X-39510Y180558D01*
X-39723D01*
X-39963Y180423D01*
X-40150Y180198D01*
X-40283Y179928D01*
X-40390Y179478D01*
X-40417Y179073D01*
X-40363Y178668D01*
X-40283Y178398D01*
X-40123Y178128D01*
X-39937Y177948D01*
X-39750Y177858D01*
X-39563D01*
X-39377Y177948D01*
X-39217Y178083D01*
X-39083Y178263D01*
G01X-37150Y177858D02*
X-37363Y177903D01*
X-37550Y178083D01*
X-37710Y178353D01*
X-37817Y178668D01*
X-37870Y179028D01*
Y179388D01*
X-37817Y179748D01*
X-37710Y180063D01*
X-37550Y180333D01*
X-37363Y180513D01*
X-37150Y180558D01*
X-36937Y180513D01*
X-36750Y180333D01*
X-36590Y180063D01*
X-36483Y179748D01*
X-36430Y179388D01*
Y179028D01*
X-36483Y178668D01*
X-36590Y178353D01*
X-36750Y178083D01*
X-36937Y177903D01*
X-37150Y177858D01*
G01X-35163D02*
Y180558D01*
X-33937Y177858D01*
Y180558D01*
G01X-32537Y177858D02*
Y180558D01*
X-32003D01*
X-31790Y180423D01*
X-31630Y180243D01*
X-31497Y179973D01*
X-31390Y179658D01*
X-31363Y179208D01*
X-31390Y178758D01*
X-31497Y178443D01*
X-31630Y178173D01*
X-31790Y177993D01*
X-32003Y177858D01*
X-32537D01*
G01X-29937Y180558D02*
Y178623D01*
X-29830Y178218D01*
X-29617Y177948D01*
X-29350Y177858D01*
X-29083Y177948D01*
X-28870Y178218D01*
X-28763Y178623D01*
Y180558D01*
G01X-26163Y180333D02*
X-26323Y180468D01*
X-26510Y180558D01*
X-26723D01*
X-26963Y180423D01*
X-27150Y180198D01*
X-27283Y179928D01*
X-27390Y179478D01*
X-27417Y179073D01*
X-27363Y178668D01*
X-27283Y178398D01*
X-27123Y178128D01*
X-26937Y177948D01*
X-26750Y177858D01*
X-26563D01*
X-26377Y177948D01*
X-26217Y178083D01*
X-26083Y178263D01*
G01X-24150Y180558D02*
Y177858D01*
G01X-24763Y180558D02*
X-23537D01*
G01X-21550Y177858D02*
X-21763Y177903D01*
X-21950Y178083D01*
X-22110Y178353D01*
X-22217Y178668D01*
X-22270Y179028D01*
Y179388D01*
X-22217Y179748D01*
X-22110Y180063D01*
X-21950Y180333D01*
X-21763Y180513D01*
X-21550Y180558D01*
X-21337Y180513D01*
X-21150Y180333D01*
X-20990Y180063D01*
X-20883Y179748D01*
X-20830Y179388D01*
Y179028D01*
X-20883Y178668D01*
X-20990Y178353D01*
X-21150Y178083D01*
X-21337Y177903D01*
X-21550Y177858D01*
G01X-19483D02*
Y180558D01*
X-18817D01*
X-18603Y180423D01*
X-18470Y180243D01*
X-18417Y179883D01*
X-18470Y179523D01*
X-18630Y179298D01*
X-18817Y179163D01*
X-19483D01*
G01X-18817D02*
X-18417Y177858D01*
G01X29593Y190650D02*
Y193350D01*
X30607D01*
G01X30233Y192045D02*
X29593D01*
G01X32380Y193350D02*
X33020D01*
G01X32700D02*
Y190650D01*
G01X32380D02*
X33020D01*
G01X35460Y192000D02*
X35993D01*
Y191190D01*
X35833Y190920D01*
X35647Y190740D01*
X35380Y190650D01*
X35113Y190740D01*
X34927Y190920D01*
X34767Y191190D01*
X34660Y191505D01*
X34607Y191865D01*
Y192180D01*
X34660Y192450D01*
X34767Y192765D01*
X34927Y193035D01*
X35087Y193215D01*
X35300Y193350D01*
X35487D01*
X35700Y193260D01*
X35860Y193080D01*
G01X37313Y193350D02*
Y191415D01*
X37420Y191010D01*
X37633Y190740D01*
X37900Y190650D01*
X38167Y190740D01*
X38380Y191010D01*
X38487Y191415D01*
Y193350D01*
G01X39967Y190650D02*
Y193350D01*
X40633D01*
X40847Y193215D01*
X40980Y193035D01*
X41033Y192675D01*
X40980Y192315D01*
X40820Y192090D01*
X40633Y191955D01*
X39967D01*
G01X40633D02*
X41033Y190650D01*
G01X43633D02*
X42567D01*
Y193350D01*
X43633D01*
G01X43207Y192045D02*
X42567D01*
G01X51393Y190650D02*
Y193350D01*
X52407D01*
G01X52033Y192045D02*
X51393D01*
G01X54180Y193350D02*
X54820D01*
G01X54500D02*
Y190650D01*
G01X54180D02*
X54820D01*
G01X56487D02*
Y193350D01*
X57713Y190650D01*
Y193350D01*
G01X59380D02*
X60020D01*
G01X59700D02*
Y190650D01*
G01X59380D02*
X60020D01*
G01X61740Y191010D02*
X61953Y190785D01*
X62193Y190650D01*
X62407D01*
X62620Y190785D01*
X62780Y191010D01*
X62860Y191325D01*
X62807Y191640D01*
X62673Y191910D01*
X62433Y192090D01*
X62113Y192180D01*
X61927Y192360D01*
X61847Y192675D01*
X61900Y192990D01*
X62033Y193215D01*
X62220Y193350D01*
X62407D01*
X62593Y193260D01*
X62753Y193035D01*
G01X64340Y190650D02*
Y193350D01*
G01X65460D02*
Y190650D01*
G01Y192000D02*
X64340D01*
G01X68033Y190650D02*
X66967D01*
Y193350D01*
X68033D01*
G01X67607Y192045D02*
X66967D01*
G01X69513Y190650D02*
Y193350D01*
X70047D01*
X70260Y193215D01*
X70420Y193035D01*
X70553Y192765D01*
X70660Y192450D01*
X70687Y192000D01*
X70660Y191550D01*
X70553Y191235D01*
X70420Y190965D01*
X70260Y190785D01*
X70047Y190650D01*
X69513D01*
G01X71900Y189750D02*
X73500D01*
G01X74740Y191010D02*
X74953Y190785D01*
X75193Y190650D01*
X75407D01*
X75620Y190785D01*
X75780Y191010D01*
X75860Y191325D01*
X75807Y191640D01*
X75673Y191910D01*
X75433Y192090D01*
X75113Y192180D01*
X74927Y192360D01*
X74847Y192675D01*
X74900Y192990D01*
X75033Y193215D01*
X75220Y193350D01*
X75407D01*
X75593Y193260D01*
X75753Y193035D01*
G01X77580Y193350D02*
X78220D01*
G01X77900D02*
Y190650D01*
G01X77580D02*
X78220D01*
G01X79993Y193350D02*
X81007D01*
X79993Y190650D01*
X81007D01*
G01X83633D02*
X82567D01*
Y193350D01*
X83633D01*
G01X83207Y192045D02*
X82567D01*
G01X47913Y209400D02*
Y212100D01*
X48447D01*
X48660Y211965D01*
X48820Y211785D01*
X48953Y211515D01*
X49060Y211200D01*
X49087Y210750D01*
X49060Y210300D01*
X48953Y209985D01*
X48820Y209715D01*
X48660Y209535D01*
X48447Y209400D01*
X47913D01*
G01X50567D02*
Y212100D01*
X51233D01*
X51447Y211965D01*
X51580Y211785D01*
X51633Y211425D01*
X51580Y211065D01*
X51420Y210840D01*
X51233Y210705D01*
X50567D01*
G01X51233D02*
X51633Y209400D01*
G01X53380Y212100D02*
X54020D01*
G01X53700D02*
Y209400D01*
G01X53380D02*
X54020D01*
G01X55767Y212100D02*
Y209400D01*
X56833D01*
G01X58367Y212100D02*
Y209400D01*
X59433D01*
G01X64687Y211875D02*
X64527Y212010D01*
X64340Y212100D01*
X64127D01*
X63887Y211965D01*
X63700Y211740D01*
X63567Y211470D01*
X63460Y211020D01*
X63433Y210615D01*
X63487Y210210D01*
X63567Y209940D01*
X63727Y209670D01*
X63913Y209490D01*
X64100Y209400D01*
X64287D01*
X64473Y209490D01*
X64633Y209625D01*
X64767Y209805D01*
G01X66140Y209400D02*
Y212100D01*
G01X67260D02*
Y209400D01*
G01Y210750D02*
X66140D01*
G01X68633Y209400D02*
X69300Y212100D01*
X69967Y209400D01*
G01X69727Y210345D02*
X68873D01*
G01X71367Y209400D02*
Y212100D01*
X72033D01*
X72247Y211965D01*
X72380Y211785D01*
X72433Y211425D01*
X72380Y211065D01*
X72220Y210840D01*
X72033Y210705D01*
X71367D01*
G01X72033D02*
X72433Y209400D01*
G01X74500Y212100D02*
Y209400D01*
G01X73887Y212100D02*
X75113D01*
G01X77100Y209310D02*
X77047Y209355D01*
Y209445D01*
X77100Y209490D01*
X77153Y209445D01*
Y209355D01*
X77100Y209310D01*
G01Y210525D02*
X77047Y210570D01*
Y210660D01*
X77100Y210705D01*
X77153Y210660D01*
Y210570D01*
X77100Y210525D01*
G01X82300Y212100D02*
Y209400D01*
G01X81687Y212100D02*
X82913D01*
G01X84900Y209400D02*
X84687Y209445D01*
X84500Y209625D01*
X84340Y209895D01*
X84233Y210210D01*
X84180Y210570D01*
Y210930D01*
X84233Y211290D01*
X84340Y211605D01*
X84500Y211875D01*
X84687Y212055D01*
X84900Y212100D01*
X85113Y212055D01*
X85300Y211875D01*
X85460Y211605D01*
X85567Y211290D01*
X85620Y210930D01*
Y210570D01*
X85567Y210210D01*
X85460Y209895D01*
X85300Y209625D01*
X85113Y209445D01*
X84900Y209400D01*
G01X86967D02*
Y212100D01*
X87607D01*
X87820Y211965D01*
X87980Y211650D01*
X88033Y211290D01*
X87980Y210930D01*
X87847Y210660D01*
X87607Y210525D01*
X86967D01*
G01X92700Y212100D02*
Y209400D01*
G01X92327Y211200D02*
X93073D01*
G01X95300Y209400D02*
X95140Y209445D01*
X94980Y209625D01*
X94873Y209940D01*
X94820Y210300D01*
X94873Y210660D01*
X94980Y210975D01*
X95140Y211155D01*
X95300Y211200D01*
X95460Y211155D01*
X95620Y210975D01*
X95727Y210660D01*
X95753Y210300D01*
X95727Y209940D01*
X95620Y209625D01*
X95460Y209445D01*
X95300Y209400D01*
G01X100713Y210840D02*
X100820Y210975D01*
X100900Y211200D01*
X100953Y211515D01*
X100900Y211785D01*
X100793Y211965D01*
X100607Y212100D01*
X99887D01*
Y209400D01*
X100767D01*
X100953Y209580D01*
X101060Y209850D01*
X101113Y210165D01*
X101060Y210480D01*
X100900Y210750D01*
X100713Y210840D01*
X99887D01*
G01X103100Y209400D02*
X102887Y209445D01*
X102700Y209625D01*
X102540Y209895D01*
X102433Y210210D01*
X102380Y210570D01*
Y210930D01*
X102433Y211290D01*
X102540Y211605D01*
X102700Y211875D01*
X102887Y212055D01*
X103100Y212100D01*
X103313Y212055D01*
X103500Y211875D01*
X103660Y211605D01*
X103767Y211290D01*
X103820Y210930D01*
Y210570D01*
X103767Y210210D01*
X103660Y209895D01*
X103500Y209625D01*
X103313Y209445D01*
X103100Y209400D01*
G01X105700Y212100D02*
Y209400D01*
G01X105087Y212100D02*
X106313D01*
G01X108300D02*
Y209400D01*
G01X107687Y212100D02*
X108913D01*
G01X110900Y209400D02*
X110687Y209445D01*
X110500Y209625D01*
X110340Y209895D01*
X110233Y210210D01*
X110180Y210570D01*
Y210930D01*
X110233Y211290D01*
X110340Y211605D01*
X110500Y211875D01*
X110687Y212055D01*
X110900Y212100D01*
X111113Y212055D01*
X111300Y211875D01*
X111460Y211605D01*
X111567Y211290D01*
X111620Y210930D01*
Y210570D01*
X111567Y210210D01*
X111460Y209895D01*
X111300Y209625D01*
X111113Y209445D01*
X110900Y209400D01*
G01X112807D02*
Y212100D01*
X113500Y209850D01*
X114193Y212100D01*
Y209400D01*
G01X53033Y196050D02*
X53700Y198750D01*
X54367Y196050D01*
G01X54127Y196995D02*
X53273D01*
G01X55767Y198750D02*
Y196050D01*
X56833D01*
G01X58367Y198750D02*
Y196050D01*
X59433D01*
G01X63513Y198750D02*
Y196815D01*
X63620Y196410D01*
X63833Y196140D01*
X64100Y196050D01*
X64367Y196140D01*
X64580Y196410D01*
X64687Y196815D01*
Y198750D01*
G01X66087Y196050D02*
Y198750D01*
X67313Y196050D01*
Y198750D01*
G01X68980D02*
X69620D01*
G01X69300D02*
Y196050D01*
G01X68980D02*
X69620D01*
G01X71900Y198750D02*
Y196050D01*
G01X71287Y198750D02*
X72513D01*
G01X73940Y196410D02*
X74153Y196185D01*
X74393Y196050D01*
X74607D01*
X74820Y196185D01*
X74980Y196410D01*
X75060Y196725D01*
X75007Y197040D01*
X74873Y197310D01*
X74633Y197490D01*
X74313Y197580D01*
X74127Y197760D01*
X74047Y198075D01*
X74100Y198390D01*
X74233Y198615D01*
X74420Y198750D01*
X74607D01*
X74793Y198660D01*
X74953Y198435D01*
G01X79033Y196050D02*
X79700Y198750D01*
X80367Y196050D01*
G01X80127Y196995D02*
X79273D01*
G01X81767Y196050D02*
Y198750D01*
X82433D01*
X82647Y198615D01*
X82780Y198435D01*
X82833Y198075D01*
X82780Y197715D01*
X82620Y197490D01*
X82433Y197355D01*
X81767D01*
G01X82433D02*
X82833Y196050D01*
G01X85433D02*
X84367D01*
Y198750D01*
X85433D01*
G01X85007Y197445D02*
X84367D01*
G01X89780Y198750D02*
X90420D01*
G01X90100D02*
Y196050D01*
G01X89780D02*
X90420D01*
G01X92087D02*
Y198750D01*
X93313Y196050D01*
Y198750D01*
G01X97207Y196050D02*
Y198750D01*
X97900Y196500D01*
X98593Y198750D01*
Y196050D01*
G01X100180Y198750D02*
X100820D01*
G01X100500D02*
Y196050D01*
G01X100180D02*
X100820D01*
G01X102567Y198750D02*
Y196050D01*
X103633D01*
G01X105140Y196410D02*
X105353Y196185D01*
X105593Y196050D01*
X105807D01*
X106020Y196185D01*
X106180Y196410D01*
X106260Y196725D01*
X106207Y197040D01*
X106073Y197310D01*
X105833Y197490D01*
X105513Y197580D01*
X105327Y197760D01*
X105247Y198075D01*
X105300Y198390D01*
X105433Y198615D01*
X105620Y198750D01*
X105807D01*
X105993Y198660D01*
X106153Y198435D01*
G01X63600Y184200D02*
Y186900D01*
X63280Y186360D01*
G01Y184200D02*
X63920D01*
G01X65693Y185325D02*
X65880Y185640D01*
X66040Y185820D01*
X66253Y185910D01*
X66440Y185820D01*
X66573Y185640D01*
X66680Y185370D01*
X66707Y185055D01*
X66680Y184785D01*
X66573Y184515D01*
X66413Y184290D01*
X66227Y184200D01*
X66013Y184290D01*
X65827Y184560D01*
X65720Y184965D01*
X65693Y185415D01*
X65747Y186000D01*
X65827Y186315D01*
X65960Y186630D01*
X66147Y186855D01*
X66333Y186900D01*
X66520Y186810D01*
X66653Y186585D01*
G01X68800Y184110D02*
X68747Y184155D01*
Y184245D01*
X68800Y184290D01*
X68853Y184245D01*
Y184155D01*
X68800Y184110D01*
G01X71400Y186900D02*
X71187Y186810D01*
X71027Y186585D01*
X70920Y186315D01*
X70840Y185955D01*
X70813Y185550D01*
X70840Y185145D01*
X70920Y184785D01*
X71027Y184515D01*
X71187Y184290D01*
X71400Y184200D01*
X71613Y184290D01*
X71773Y184515D01*
X71880Y184785D01*
X71960Y185145D01*
X71987Y185550D01*
X71960Y185955D01*
X71880Y186315D01*
X71773Y186585D01*
X71613Y186810D01*
X71400Y186900D01*
G01X83700Y179400D02*
Y176700D01*
G01X83087Y179400D02*
X84313D01*
G01X86300Y176700D02*
X86087Y176745D01*
X85900Y176925D01*
X85740Y177195D01*
X85633Y177510D01*
X85580Y177870D01*
Y178230D01*
X85633Y178590D01*
X85740Y178905D01*
X85900Y179175D01*
X86087Y179355D01*
X86300Y179400D01*
X86513Y179355D01*
X86700Y179175D01*
X86860Y178905D01*
X86967Y178590D01*
X87020Y178230D01*
Y177870D01*
X86967Y177510D01*
X86860Y177195D01*
X86700Y176925D01*
X86513Y176745D01*
X86300Y176700D01*
G01X88900Y179400D02*
Y176700D01*
G01X88287Y179400D02*
X89513D01*
G01X90833Y176700D02*
X91500Y179400D01*
X92167Y176700D01*
G01X91927Y177645D02*
X91073D01*
G01X93567Y179400D02*
Y176700D01*
X94633D01*
G01X98740D02*
Y179400D01*
G01X99860D02*
Y176700D01*
G01Y178050D02*
X98740D01*
G01X101900Y176700D02*
X101687Y176745D01*
X101500Y176925D01*
X101340Y177195D01*
X101233Y177510D01*
X101180Y177870D01*
Y178230D01*
X101233Y178590D01*
X101340Y178905D01*
X101500Y179175D01*
X101687Y179355D01*
X101900Y179400D01*
X102113Y179355D01*
X102300Y179175D01*
X102460Y178905D01*
X102567Y178590D01*
X102620Y178230D01*
Y177870D01*
X102567Y177510D01*
X102460Y177195D01*
X102300Y176925D01*
X102113Y176745D01*
X101900Y176700D01*
G01X103967Y179400D02*
Y176700D01*
X105033D01*
G01X107633D02*
X106567D01*
Y179400D01*
X107633D01*
G01X107207Y178095D02*
X106567D01*
G01X109140Y177060D02*
X109353Y176835D01*
X109593Y176700D01*
X109807D01*
X110020Y176835D01*
X110180Y177060D01*
X110260Y177375D01*
X110207Y177690D01*
X110073Y177960D01*
X109833Y178140D01*
X109513Y178230D01*
X109327Y178410D01*
X109247Y178725D01*
X109300Y179040D01*
X109433Y179265D01*
X109620Y179400D01*
X109807D01*
X109993Y179310D01*
X110153Y179085D01*
G01X112300Y176610D02*
X112247Y176655D01*
Y176745D01*
X112300Y176790D01*
X112353Y176745D01*
Y176655D01*
X112300Y176610D01*
G01Y177825D02*
X112247Y177870D01*
Y177960D01*
X112300Y178005D01*
X112353Y177960D01*
Y177870D01*
X112300Y177825D01*
G01X78500Y163850D02*
Y166550D01*
X78180Y166010D01*
G01Y163850D02*
X78820D01*
G01X81100Y163760D02*
X81047Y163805D01*
Y163895D01*
X81100Y163940D01*
X81153Y163895D01*
Y163805D01*
X81100Y163760D01*
G01X83193Y164975D02*
X83380Y165290D01*
X83540Y165470D01*
X83753Y165560D01*
X83940Y165470D01*
X84073Y165290D01*
X84180Y165020D01*
X84207Y164705D01*
X84180Y164435D01*
X84073Y164165D01*
X83913Y163940D01*
X83727Y163850D01*
X83513Y163940D01*
X83327Y164210D01*
X83220Y164615D01*
X83193Y165065D01*
X83247Y165650D01*
X83327Y165965D01*
X83460Y166280D01*
X83647Y166505D01*
X83833Y166550D01*
X84020Y166460D01*
X84153Y166235D01*
G01X86300Y166550D02*
X86087Y166460D01*
X85927Y166235D01*
X85820Y165965D01*
X85740Y165605D01*
X85713Y165200D01*
X85740Y164795D01*
X85820Y164435D01*
X85927Y164165D01*
X86087Y163940D01*
X86300Y163850D01*
X86513Y163940D01*
X86673Y164165D01*
X86780Y164435D01*
X86860Y164795D01*
X86887Y165200D01*
X86860Y165605D01*
X86780Y165965D01*
X86673Y166235D01*
X86513Y166460D01*
X86300Y166550D01*
G01X95267Y190650D02*
Y193350D01*
X95907D01*
X96120Y193215D01*
X96280Y192900D01*
X96333Y192540D01*
X96280Y192180D01*
X96147Y191910D01*
X95907Y191775D01*
X95267D01*
G01X97867Y193350D02*
Y190650D01*
X98933D01*
G01X100333D02*
X101000Y193350D01*
X101667Y190650D01*
G01X101427Y191595D02*
X100573D01*
G01X103600Y193350D02*
Y190650D01*
G01X102987Y193350D02*
X104213D01*
G01X106733Y190650D02*
X105667D01*
Y193350D01*
X106733D01*
G01X106307Y192045D02*
X105667D01*
G01X108213Y190650D02*
Y193350D01*
X108747D01*
X108960Y193215D01*
X109120Y193035D01*
X109253Y192765D01*
X109360Y192450D01*
X109387Y192000D01*
X109360Y191550D01*
X109253Y191235D01*
X109120Y190965D01*
X108960Y190785D01*
X108747Y190650D01*
X108213D01*
G01X95267Y184200D02*
Y186900D01*
X95907D01*
X96120Y186765D01*
X96280Y186450D01*
X96333Y186090D01*
X96280Y185730D01*
X96147Y185460D01*
X95907Y185325D01*
X95267D01*
G01X97867Y186900D02*
Y184200D01*
X98933D01*
G01X100333D02*
X101000Y186900D01*
X101667Y184200D01*
G01X101427Y185145D02*
X100573D01*
G01X103600Y186900D02*
Y184200D01*
G01X102987Y186900D02*
X104213D01*
G01X106733Y184200D02*
X105667D01*
Y186900D01*
X106733D01*
G01X106307Y185595D02*
X105667D01*
G01X108213Y184200D02*
Y186900D01*
X108747D01*
X108960Y186765D01*
X109120Y186585D01*
X109253Y186315D01*
X109360Y186000D01*
X109387Y185550D01*
X109360Y185100D01*
X109253Y184785D01*
X109120Y184515D01*
X108960Y184335D01*
X108747Y184200D01*
X108213D01*
G01X121500Y190650D02*
X121287Y190695D01*
X121100Y190875D01*
X120940Y191145D01*
X120833Y191460D01*
X120780Y191820D01*
Y192180D01*
X120833Y192540D01*
X120940Y192855D01*
X121100Y193125D01*
X121287Y193305D01*
X121500Y193350D01*
X121713Y193305D01*
X121900Y193125D01*
X122060Y192855D01*
X122167Y192540D01*
X122220Y192180D01*
Y191820D01*
X122167Y191460D01*
X122060Y191145D01*
X121900Y190875D01*
X121713Y190695D01*
X121500Y190650D01*
G01X121713Y191370D02*
X122033Y190650D01*
G01X124100Y193350D02*
Y190650D01*
G01X123487Y193350D02*
X124713D01*
G01X126700Y190650D02*
Y191865D01*
X126167Y193350D01*
G01X127233D02*
X126700Y191865D01*
G01X122213Y184740D02*
X122373Y184425D01*
X122587Y184245D01*
X122827Y184200D01*
X123040Y184245D01*
X123253Y184470D01*
X123387Y184740D01*
X123413Y185010D01*
X123360Y185325D01*
X123173Y185550D01*
X122987Y185640D01*
X122747D01*
G01X122987D02*
X123147Y185775D01*
X123280Y186000D01*
X123333Y186270D01*
X123280Y186540D01*
X123147Y186765D01*
X122907Y186900D01*
X122667Y186855D01*
X122427Y186675D01*
G01X124893Y185325D02*
X125080Y185640D01*
X125240Y185820D01*
X125453Y185910D01*
X125640Y185820D01*
X125773Y185640D01*
X125880Y185370D01*
X125907Y185055D01*
X125880Y184785D01*
X125773Y184515D01*
X125613Y184290D01*
X125427Y184200D01*
X125213Y184290D01*
X125027Y184560D01*
X124920Y184965D01*
X124893Y185415D01*
X124947Y186000D01*
X125027Y186315D01*
X125160Y186630D01*
X125347Y186855D01*
X125533Y186900D01*
X125720Y186810D01*
X125853Y186585D01*
G01X122213Y177240D02*
X122373Y176925D01*
X122587Y176745D01*
X122827Y176700D01*
X123040Y176745D01*
X123253Y176970D01*
X123387Y177240D01*
X123413Y177510D01*
X123360Y177825D01*
X123173Y178050D01*
X122987Y178140D01*
X122747D01*
G01X122987D02*
X123147Y178275D01*
X123280Y178500D01*
X123333Y178770D01*
X123280Y179040D01*
X123147Y179265D01*
X122907Y179400D01*
X122667Y179355D01*
X122427Y179175D01*
G01X124893Y177825D02*
X125080Y178140D01*
X125240Y178320D01*
X125453Y178410D01*
X125640Y178320D01*
X125773Y178140D01*
X125880Y177870D01*
X125907Y177555D01*
X125880Y177285D01*
X125773Y177015D01*
X125613Y176790D01*
X125427Y176700D01*
X125213Y176790D01*
X125027Y177060D01*
X124920Y177465D01*
X124893Y177915D01*
X124947Y178500D01*
X125027Y178815D01*
X125160Y179130D01*
X125347Y179355D01*
X125533Y179400D01*
X125720Y179310D01*
X125853Y179085D01*
G01X164200Y75850D02*
Y78550D01*
X163880Y78010D01*
G01Y75850D02*
X164520D01*
G01X166800Y75760D02*
X166747Y75805D01*
Y75895D01*
X166800Y75940D01*
X166853Y75895D01*
Y75805D01*
X166800Y75760D01*
G01X168893Y76975D02*
X169080Y77290D01*
X169240Y77470D01*
X169453Y77560D01*
X169640Y77470D01*
X169773Y77290D01*
X169880Y77020D01*
X169907Y76705D01*
X169880Y76435D01*
X169773Y76165D01*
X169613Y75940D01*
X169427Y75850D01*
X169213Y75940D01*
X169027Y76210D01*
X168920Y76615D01*
X168893Y77065D01*
X168947Y77650D01*
X169027Y77965D01*
X169160Y78280D01*
X169347Y78505D01*
X169533Y78550D01*
X169720Y78460D01*
X169853Y78235D01*
G01X172000Y78550D02*
X171787Y78460D01*
X171627Y78235D01*
X171520Y77965D01*
X171440Y77605D01*
X171413Y77200D01*
X171440Y76795D01*
X171520Y76435D01*
X171627Y76165D01*
X171787Y75940D01*
X172000Y75850D01*
X172213Y75940D01*
X172373Y76165D01*
X172480Y76435D01*
X172560Y76795D01*
X172587Y77200D01*
X172560Y77605D01*
X172480Y77965D01*
X172373Y78235D01*
X172213Y78460D01*
X172000Y78550D01*
M02*
