G04 ================== begin FILE IDENTIFICATION RECORD ==================*
G04 Layout Name:  C:/Users/Administrator/Desktop/P1-Layout/allegro/STABILIZATOR_N17.brd*
G04 Film Name:    SMTOP*
G04 File Format:  Gerber RS274X*
G04 File Origin:  Cadence Allegro 17.2-S025*
G04 Origin Date:  Fri Dec 08 20:06:13 2023*
G04 *
G04 Layer:  VIA CLASS/SOLDERMASK_TOP*
G04 Layer:  PIN/SOLDERMASK_TOP*
G04 Layer:  PACKAGE GEOMETRY/SOLDERMASK_TOP*
G04 Layer:  DRC ERROR CLASS/SOLDERMASK_TOP*
G04 Layer:  BOARD GEOMETRY/SOLDERMASK_TOP*
G04 *
G04 Offset:    (0.00 0.00)*
G04 Mirror:    No*
G04 Mode:      Positive*
G04 Rotation:  0*
G04 FullContactRelief:  No*
G04 UndefLineWidth:     0.00*
G04 ================== end FILE IDENTIFICATION RECORD ====================*
%FSLAX25Y25*MOIN*%
%IR0*IPPOS*OFA0.00000B0.00000*MIA0B0*SFA1.00000B1.00000*%
%ADD17R,.09X.13*%
%ADD16C,.08*%
%ADD12C,.044*%
%ADD18C,.0415*%
%ADD13R,.06X.06*%
%ADD10R,.06118X.06118*%
%ADD20R,.07299X.12811*%
%ADD14R,.046X.06*%
%ADD15R,.06X.046*%
%ADD21R,.058X.086*%
%ADD19R,.23835X.25409*%
%ADD11R,.06118X.08874*%
%LPD*%
G75*
G54D10*
X32800Y13245D03*
Y22300D03*
X147400Y48145D03*
Y57200D03*
G54D11*
X10556Y17772D03*
X125156Y52672D03*
G54D20*
X92692Y50400D03*
X74700D03*
G54D21*
X77800Y135800D03*
X69900D03*
G54D12*
X31600Y37800D03*
X24800Y36100D03*
X7400Y51700D03*
X23800Y52200D03*
X23850Y87850D03*
X32750Y122250D03*
X13500Y107900D03*
X27100D03*
X47500Y37800D03*
X51800Y51500D03*
X59700Y57200D03*
X47500Y64700D03*
X47000Y80500D03*
Y94100D03*
X49000Y99900D03*
X46500Y105500D03*
X45700Y128800D03*
X37400Y108000D03*
X44900Y134400D03*
X63100Y10200D03*
X86700Y99800D03*
X65900Y92200D03*
X65600Y97500D03*
X81300Y115500D03*
X65650Y119550D03*
X107200Y31300D03*
Y16100D03*
X107500Y37900D03*
X100600Y78700D03*
X115800Y82100D03*
X105850Y98450D03*
X122400Y76400D03*
X104400Y113700D03*
X144600Y68900D03*
Y82500D03*
G54D13*
X22100Y45000D03*
X13700D03*
Y58800D03*
X22100D03*
X21300Y71400D03*
X12900D03*
X13500Y101000D03*
X21900D03*
X12900Y80700D03*
X21300D03*
X21800Y127700D03*
X13400D03*
X13500Y114600D03*
X21900D03*
X56300Y28100D03*
X47900D03*
Y18900D03*
X56300D03*
X43000Y114700D03*
X34600D03*
X72900Y123000D03*
X81300D03*
X92900Y135800D03*
Y147900D03*
X77800D03*
X69400D03*
X120600Y32300D03*
Y22000D03*
X115200Y123300D03*
X123600D03*
X101300Y135800D03*
Y147900D03*
X115200Y147800D03*
X123600D03*
Y134900D03*
X115200D03*
X147400Y32300D03*
X139000D03*
X129000D03*
Y22000D03*
X137900Y89500D03*
X146300D03*
Y103200D03*
X137900D03*
X126300Y98300D03*
Y89900D03*
X146300Y120600D03*
X137900D03*
X137500Y147800D03*
X145900D03*
G54D14*
X32600Y66400D03*
X32800Y102200D03*
X32700Y86700D03*
X56400Y42500D03*
X36700Y58300D03*
X40800Y66400D03*
X59700Y72800D03*
X55600Y64700D03*
X60500Y50600D03*
X59300Y99300D03*
X36900Y94100D03*
X41000Y102200D03*
X36800Y78600D03*
X40900Y86700D03*
X59700Y88600D03*
X55600Y80500D03*
X56000Y118200D03*
X60100Y126300D03*
X51900D03*
X63400Y107400D03*
X55200D03*
X64600Y42500D03*
X63800Y64700D03*
X77000Y100600D03*
X63800Y80500D03*
X81100Y108700D03*
X72900D03*
X91900Y106100D03*
X96000Y98000D03*
X100100Y106100D03*
G54D15*
X31600Y47100D03*
X39700Y43000D03*
Y51200D03*
X107700Y92700D03*
X115800Y88600D03*
Y96800D03*
X102800Y121600D03*
X94700Y125700D03*
Y117500D03*
X129700Y73000D03*
X137800Y68900D03*
Y77100D03*
G54D16*
X20000Y140000D03*
X140000Y20000D03*
G54D17*
X32900Y145000D03*
X56500D03*
X73300Y18000D03*
X96900D03*
G54D18*
X39800Y31600D03*
G54D19*
X83676Y78707D03*
M02*
