G04 ================== begin FILE IDENTIFICATION RECORD ==================*
G04 Layout Name:  C:/Users/Administrator/Desktop/P1-Layout/allegro/STABILIZATOR_N17.brd*
G04 Film Name:    TOP*
G04 File Format:  Gerber RS274X*
G04 File Origin:  Cadence Allegro 17.2-S025*
G04 Origin Date:  Fri Dec 08 20:06:13 2023*
G04 *
G04 Layer:  ETCH/TOP*
G04 Layer:  PIN/TOP*
G04 Layer:  VIA CLASS/TOP*
G04 *
G04 Offset:    (0.00 0.00)*
G04 Mirror:    No*
G04 Mode:      Positive*
G04 Rotation:  0*
G04 FullContactRelief:  No*
G04 UndefLineWidth:     8.00*
G04 ================== end FILE IDENTIFICATION RECORD ====================*
%FSLAX25Y25*MOIN*%
%IR0*IPPOS*OFA0.00000B0.00000*MIA0B0*SFA1.00000B1.00000*%
%ADD17R,.08X.12*%
%ADD16C,.04*%
%ADD12C,.024*%
%ADD18C,.0315*%
%ADD13R,.05X.05*%
%ADD10R,.05118X.05118*%
%ADD20R,.06299X.11811*%
%ADD14R,.036X.05*%
%ADD15R,.05X.036*%
%ADD21R,.048X.076*%
%ADD19R,.22835X.24409*%
%ADD11R,.05118X.07874*%
%ADD22C,.02*%
%ADD23C,.016*%
%ADD24C,.08004*%
G75*
%LPD*%
G75*
G36*
G01X4801Y4801D02*
Y6520D01*
G02X5484Y6803I400J0D01*
G01X6388Y5898D01*
X26012D01*
X28402Y8288D01*
Y19988D01*
X28512Y20098D01*
X28840D01*
Y19741D01*
G03X30241Y18340I1401J0D01*
G01X35359D01*
G03X36760Y19741I0J1401D01*
G01Y24859D01*
G03X35359Y26260I-1401J0D01*
G01X30241D01*
G03X28840Y24859I0J-1401D01*
G01Y24502D01*
X26688D01*
X24584Y22398D01*
G02X23902Y22681I-282J283D01*
G01Y29088D01*
X24212Y29398D01*
X37796D01*
G03X42774Y31458I2004J2202D01*
G01X42783Y31648D01*
X43719D01*
G02X44092Y31105I0J-400D01*
G03X43998Y30600I1308J-505D01*
G01Y25600D01*
G03X45400Y24198I1402J0D01*
G01X45698D01*
Y22802D01*
X45400D01*
G03X43998Y21400I0J-1402D01*
G01Y16400D01*
G03X45400Y14998I1402J0D01*
G01X50400D01*
G03X51802Y16400I0J1402D01*
G01Y21400D01*
G03X50400Y22802I-1402J0D01*
G01X50102D01*
Y24198D01*
X50400D01*
G03X51802Y25600I0J1402D01*
G01Y30600D01*
G03X51708Y31105I-1402J0D01*
G02X52081Y31648I373J143D01*
G01X52119D01*
G02X52492Y31105I0J-400D01*
G03X52398Y30600I1308J-505D01*
G01Y25600D01*
G03X53800Y24198I1402J0D01*
G01X54098D01*
Y23388D01*
X54344Y23143D01*
G02X54202Y22802I-142J-141D01*
G01X53800D01*
G03X52398Y21400I0J-1402D01*
G01Y16400D01*
G03X53800Y14998I1402J0D01*
G01X54098D01*
Y11712D01*
X54088Y11702D01*
X41812D01*
X38067Y15446D01*
X36760D01*
Y15804D01*
G03X35359Y17206I-1402J0D01*
G01X30241D01*
G03X28840Y15804I0J-1401D01*
G01Y10686D01*
G03X30241Y9284I1402J0D01*
G01X35359D01*
G03X36577Y9993I0J1401D01*
G02X37208Y10079I348J-197D01*
G01X39988Y7298D01*
X55912D01*
X58502Y9888D01*
Y14998D01*
X58800D01*
G03X60202Y16400I0J1402D01*
G01Y19514D01*
G02X60543Y19656I200J0D01*
G01X60898Y19300D01*
Y11587D01*
G03X65302I2202J-1387D01*
G01Y21124D01*
X61210Y25216D01*
G02X61493Y25898I283J282D01*
G01X75502D01*
Y25402D01*
X76585D01*
X76802Y25184D01*
G02X76519Y24502I-283J-282D01*
G01X69300D01*
G03X68798Y24000I0J-502D01*
G01Y12000D01*
G03X69300Y11498I502J0D01*
G01X77300D01*
G03X77802Y12000I0J502D01*
G01Y23702D01*
G02X78143Y23844I200J0D01*
G01X78502Y23485D01*
Y20202D01*
X81785D01*
X86188Y15798D01*
X91498D01*
Y12000D01*
G03X92900Y10598I1402J0D01*
G01X100900D01*
G03X102302Y12000I0J1402D01*
G01Y15798D01*
X104812D01*
X108812Y19798D01*
X116698D01*
Y19500D01*
G03X118100Y18098I1402J0D01*
G01X123100D01*
G03X124502Y19500I0J1402D01*
G01Y24500D01*
G03X123100Y25902I-1402J0D01*
G01X118100D01*
G03X116698Y24500I0J-1402D01*
G01Y24202D01*
X106988D01*
X102988Y20202D01*
X102302D01*
Y24000D01*
G03X102192Y24543I-1402J-1D01*
G02X102561Y25098I368J155D01*
G01X110213D01*
X113902Y28787D01*
Y37233D01*
X116619Y39951D01*
G02X117302Y39668I283J-283D01*
G01Y37702D01*
X120798D01*
Y41398D01*
X135112D01*
X138002Y44288D01*
Y60188D01*
X138412Y60598D01*
X143094D01*
G02X143482Y60101I0J-400D01*
G03X143440Y59759I1359J-340D01*
G01Y54641D01*
G03X144841Y53240I1401J0D01*
G01X149959D01*
G03X151360Y54641I0J1401D01*
G01Y54998D01*
X153112D01*
X154516Y56403D01*
G02X155199Y56120I283J-283D01*
G01Y4801D01*
X4801D01*
G37*
G36*
G01X26002Y47500D02*
G03X24600Y48902I-1402J0D01*
G01X19600D01*
G03X18198Y47500I0J-1402D01*
G01Y42500D01*
G03X18344Y41879I1402J2D01*
G02X17986Y41302I-359J-177D01*
G01X17814D01*
G02X17456Y41879I1J400D01*
G03X17602Y42500I-1256J623D01*
G01Y47500D01*
G03X16200Y48902I-1402J0D01*
G01X15902D01*
Y54898D01*
X16200D01*
G03X17602Y56300I0J1402D01*
G01Y61300D01*
G03X17456Y61921I-1402J-2D01*
G02X17814Y62498I359J177D01*
G01X21012D01*
X23502Y64988D01*
Y67498D01*
X23800D01*
G03X24655Y67789I0J1402D01*
G02X25298Y67472I243J-317D01*
G01Y66288D01*
X27388Y64198D01*
X29398D01*
Y63900D01*
G03X30800Y62498I1402J0D01*
G01X33652D01*
G02X33929Y61810I0J-400D01*
G03X33498Y60800I971J-1011D01*
G01Y60502D01*
X32188D01*
X29298Y57612D01*
Y50501D01*
X29099Y50301D01*
G03X27698Y48900I0J-1401D01*
G01Y45300D01*
G03X29100Y43898I1402J0D01*
G01X29398D01*
Y39187D01*
G03X29092Y37108I2202J-1386D01*
G02X28707Y36602I-386J-106D01*
G01X27412D01*
X27339Y36675D01*
X27319Y36751D01*
G03X24282Y38650I-2519J-651D01*
G01X24177Y38629D01*
X23959Y38846D01*
X24302Y39188D01*
Y41098D01*
X24600D01*
G03X26002Y42500I0J1402D01*
G01Y47500D01*
G37*
G36*
G01X75181Y34702D02*
G02X74898Y35384I0J400D01*
G01X76902Y37388D01*
Y43093D01*
X77850D01*
G03X79251Y44494I0J1401D01*
G01Y56306D01*
G03X77850Y57707I-1402J-1D01*
G01X71550D01*
G03X70734Y57445I0J-1402D01*
G02X70102Y57770I-232J325D01*
G01Y60388D01*
X70112Y60398D01*
X82812D01*
X85902Y63488D01*
Y65101D01*
X95094D01*
G03X96495Y66502I-1J1402D01*
G01Y76498D01*
X99213D01*
G03X101987I1387J2202D01*
G01X107012D01*
X109902Y79388D01*
Y89498D01*
X110200D01*
G03X111210Y89929I-1J1402D01*
G02X111898Y89651I288J-277D01*
G01Y86800D01*
G03X113300Y85398I1402J0D01*
G01X113598D01*
Y83487D01*
G03X118002I2202J-1387D01*
G01Y85398D01*
X118300D01*
G03X119702Y86800I0J1402D01*
G01Y90400D01*
G03X118300Y91802I-1402J0D01*
G01X113300D01*
G03X112290Y91371I1J-1402D01*
G02X111602Y91649I-288J277D01*
G01Y93751D01*
G02X112290Y94029I400J1D01*
G03X113300Y93598I1011J971D01*
G01X118300D01*
G03X119702Y95000I0J1402D01*
G01Y98600D01*
G03X118300Y100002I-1402J0D01*
G01X118002D01*
Y105688D01*
X118312Y105998D01*
X130112D01*
X132702Y108588D01*
Y145388D01*
X132912Y145598D01*
X133598D01*
Y145300D01*
G03X135000Y143898I1402J0D01*
G01X140000D01*
G03X141402Y145300I0J1402D01*
G01Y150300D01*
G03X140000Y151702I-1402J0D01*
G01X135000D01*
G03X133598Y150300I0J-1402D01*
G01Y150002D01*
X131088D01*
X128298Y147212D01*
Y110412D01*
X128288Y110402D01*
X116488D01*
X113598Y107512D01*
Y104298D01*
X113300D01*
G02X112069Y105030I0J1401D01*
G03X112001Y105122I-353J-190D01*
G02Y105687I283J283D01*
G01X112602Y106288D01*
Y111498D01*
X123712D01*
X125802Y113588D01*
Y119398D01*
X126100D01*
G03X127502Y120800I0J1402D01*
G01Y125800D01*
G03X126100Y127202I-1402J0D01*
G01X121100D01*
G03X119698Y125800I0J-1402D01*
G01Y120800D01*
G03X121100Y119398I1402J0D01*
G01X121398D01*
Y115902D01*
X110388D01*
X108198Y113712D01*
Y108270D01*
X104144D01*
X104112Y108302D01*
X103302D01*
Y108600D01*
G03X101900Y110002I-1402J0D01*
G01X98300D01*
G03X96898Y108600I0J-1402D01*
G01Y103600D01*
G03X97774Y102301I1401J0D01*
G01X97898Y102250D01*
Y101902D01*
X94102D01*
Y102250D01*
X94226Y102301D01*
G03X95102Y103600I-525J1299D01*
G01Y108600D01*
G03X93700Y110002I-1402J0D01*
G01X90100D01*
G03X89790Y109967I1J-1402D01*
G02X89301Y110357I-89J390D01*
G01Y123388D01*
X89412Y123498D01*
X90850D01*
X90901Y123374D01*
G03X92200Y122498I1299J525D01*
G01X92498D01*
Y121588D01*
X92702Y121384D01*
G02X92419Y120702I-283J-282D01*
G01X92200D01*
G03X90798Y119300I0J-1402D01*
G01Y115700D01*
G03X92200Y114298I1402J0D01*
G01X97200D01*
G03X98499Y115174I0J1401D01*
G01X98550Y115298D01*
X101648D01*
G02X102014Y114739I-1J-400D01*
G03X106602Y115087I2386J-1039D01*
G01Y117412D01*
X106004Y118010D01*
G02X106067Y118627I283J283D01*
G03X106599Y119274I-767J1173D01*
G01X106650Y119398D01*
X108812D01*
X110802Y121388D01*
Y145598D01*
X111298D01*
Y145300D01*
G03X112700Y143898I1402J0D01*
G01X117700D01*
G03X119102Y145300I0J1402D01*
G01Y150300D01*
G03X117700Y151702I-1402J0D01*
G01X112700D01*
G03X111298Y150300I0J-1402D01*
G01Y150002D01*
X108588D01*
X106398Y147812D01*
Y125061D01*
G02X105843Y124692I-400J-1D01*
G03X105300Y124802I-544J-1292D01*
G01X100300D01*
G03X99001Y123926I0J-1401D01*
G01X98950Y123802D01*
X98602D01*
Y127500D01*
G03X97200Y128902I-1402J0D01*
G01X92200D01*
G03X90901Y128026I0J-1401D01*
G01X90850Y127902D01*
X87588D01*
X85699Y126013D01*
G02X85057Y126119I-283J282D01*
G03X83800Y126902I-1258J-619D01*
G01X83502D01*
Y127712D01*
X81312Y129902D01*
X72412D01*
X72102Y130212D01*
Y130598D01*
X80200D01*
G03X81602Y132000I0J1402D01*
G01Y133598D01*
X88998D01*
Y133300D01*
G03X90400Y131898I1402J0D01*
G01X95400D01*
G03X96802Y133300I0J1402D01*
G01Y138300D01*
G03X95400Y139702I-1402J0D01*
G01X90400D01*
G03X88998Y138300I0J-1402D01*
G01Y138002D01*
X81602D01*
Y139600D01*
G03X80200Y141002I-1402J0D01*
G01X67500D01*
G03X66098Y139600I0J-1402D01*
G01Y138002D01*
X62199D01*
G02X61822Y138534I0J400D01*
G03X61902Y139000I-1322J467D01*
G01Y151000D01*
G03X60500Y152402I-1402J0D01*
G01X52500D01*
G03X51098Y151000I0J-1402D01*
G01Y147102D01*
X45588D01*
X42698Y144212D01*
Y135787D01*
G03X47102I2202J-1387D01*
G01Y142388D01*
X47412Y142698D01*
X51098D01*
Y139000D01*
G03X51733Y137827I1401J0D01*
G02X51796Y137210I-220J-334D01*
G01X49698Y135112D01*
Y130150D01*
X49574Y130099D01*
G03X48698Y128800I525J-1299D01*
G01Y123800D01*
G03X50100Y122398I1402J0D01*
G01X53798D01*
Y122050D01*
X53674Y121999D01*
G03X52798Y120700I525J-1299D01*
G01Y115700D01*
G03X54200Y114298I1402J0D01*
G01X57800D01*
G03X59202Y115700I0J1402D01*
G01Y115998D01*
X65212D01*
X66225Y117012D01*
X66279Y117025D01*
G03X63191Y120402I-629J2525D01*
G01X59202D01*
Y120700D01*
G03X58326Y121999I-1401J0D01*
G01X58202Y122050D01*
Y122398D01*
X61900D01*
G03X63302Y123800I0J1402D01*
G01Y128800D01*
G03X61900Y130202I-1402J0D01*
G01X58300D01*
G03X56898Y128800I0J-1402D01*
G01Y128502D01*
X55788D01*
X55784Y128498D01*
G02X55102Y128781I-282J283D01*
G01Y128800D01*
G03X54226Y130099I-1401J0D01*
G01X54102Y130150D01*
Y133288D01*
X54212Y133398D01*
X56312D01*
X56512Y133598D01*
X66098D01*
Y132000D01*
G03X67499Y130598I1402J0D01*
G02X67698Y130398I-1J-200D01*
G01Y128388D01*
X69497Y126589D01*
X69368Y126448D01*
G03X68998Y125500I1032J-949D01*
G01Y120500D01*
G03X70400Y119098I1402J0D01*
G01X70698D01*
Y112550D01*
X70574Y112499D01*
G03X69698Y111200I525J-1299D01*
G01Y106200D01*
G03X71100Y104798I1402J0D01*
G01X73951D01*
G02X74229Y104110I1J-400D01*
G03X73798Y103100I971J-1011D01*
G01Y102802D01*
X72845D01*
X68580Y98536D01*
G02X67937Y98643I-283J283D01*
G03X66229Y100025I-2338J-1143D01*
G01X66175Y100038D01*
X65602Y100612D01*
Y103550D01*
X65726Y103601D01*
G03X66602Y104900I-525J1299D01*
G01Y109900D01*
G03X65200Y111302I-1402J0D01*
G01X61600D01*
G03X60198Y109900I0J-1402D01*
G01Y109602D01*
X58988D01*
X58743Y109356D01*
G02X58402Y109498I-141J142D01*
G01Y109900D01*
G03X57000Y111302I-1402J0D01*
G01X53400D01*
G03X52390Y110871I1J-1402D01*
G02X51702Y111149I-288J277D01*
G01Y118612D01*
X40412Y129902D01*
X25702D01*
Y130200D01*
G03X24300Y131602I-1402J0D01*
G01X19300D01*
G03X17898Y130200I0J-1402D01*
G01Y125200D01*
G03X19300Y123798I1402J0D01*
G01X21319D01*
G02X21602Y123116I0J-400D01*
G01X19698Y121212D01*
Y118502D01*
X19400D01*
G03X17998Y117100I0J-1402D01*
G01Y112100D01*
G03X19400Y110698I1402J0D01*
G01X19698D01*
Y104902D01*
X19400D01*
G03X17998Y103500I0J-1402D01*
G01Y98500D01*
G03X19400Y97098I1402J0D01*
G01X24400D01*
G03X25301Y97427I-1J1402D01*
G02X25571Y97415I128J-153D01*
G01X30498Y92488D01*
Y92198D01*
G02X30157Y92056I-200J0D01*
G01X26112Y96102D01*
X15702D01*
Y97098D01*
X16000D01*
G03X17402Y98500I0J1402D01*
G01Y103500D01*
G03X16000Y104902I-1402J0D01*
G01X15003D01*
G02X14803Y105648I0J400D01*
G03X15730Y109241I-1303J2252D01*
G01X15702Y109288D01*
Y110698D01*
X16000D01*
G03X17402Y112100I0J1402D01*
G01Y117100D01*
G03X16000Y118502I-1402J0D01*
G01X11000D01*
G03X9598Y117100I0J-1402D01*
G01Y112100D01*
G03X11000Y110698I1402J0D01*
G01X11298D01*
Y109288D01*
X11270Y109241D01*
G03X12197Y105648I2230J-1341D01*
G02X11997Y104902I-200J-346D01*
G01X11000D01*
G03X9598Y103500I0J-1402D01*
G01Y98500D01*
G03X11000Y97098I1402J0D01*
G01X11298D01*
Y94088D01*
X13688Y91698D01*
X24288D01*
X26300Y89686D01*
Y86186D01*
X25298Y85184D01*
Y75328D01*
G02X24655Y75011I-400J0D01*
G03X23800Y75302I-855J-1111D01*
G01X18800D01*
G03X17398Y73900I0J-1402D01*
G01Y68900D01*
G03X18800Y67498I1402J0D01*
G01X19098D01*
Y66902D01*
X7688D01*
X5484Y64697D01*
G02X4801Y64980I-283J283D01*
G01Y155199D01*
X155199D01*
Y128812D01*
G02X154516Y128529I-400J0D01*
G01X152444Y130602D01*
X148412D01*
X148102Y130912D01*
Y143898D01*
X148400D01*
G03X149802Y145300I0J1402D01*
G01Y150300D01*
G03X148400Y151702I-1402J0D01*
G01X143400D01*
G03X141998Y150300I0J-1402D01*
G01Y145300D01*
G03X143400Y143898I1402J0D01*
G01X143698D01*
Y129088D01*
X146588Y126198D01*
X150620D01*
X150930Y125888D01*
Y77849D01*
G02X150248Y77566I-400J0D01*
G01X148512Y79302D01*
X141650D01*
X141599Y79426D01*
G03X141467Y79677I-1300J-524D01*
G02X141799Y80298I333J221D01*
G01X143213D01*
G03Y84702I1387J2202D01*
G01X140102D01*
Y85598D01*
X140400D01*
G03X141802Y87000I0J1402D01*
G01Y92000D01*
G03X140400Y93402I-1402J0D01*
G01X135400D01*
G03X133998Y92000I0J-1402D01*
G01Y87000D01*
G03X135400Y85598I1402J0D01*
G01X135698D01*
Y82488D01*
X137202Y80984D01*
G02X136919Y80302I-283J-282D01*
G01X135300D01*
G03X134001Y79426I0J-1401D01*
G01X133950Y79302D01*
X128712D01*
X128502Y79512D01*
Y85998D01*
X128800D01*
G03X130202Y87400I0J1402D01*
G01Y92400D01*
G03X128800Y93802I-1402J0D01*
G01X123800D01*
G03X122398Y92400I0J-1402D01*
G01Y87400D01*
G03X123800Y85998I1402J0D01*
G01X124098D01*
Y79107D01*
G02X123526Y78746I-400J0D01*
G03X120014Y75363I-1126J-2346D01*
G02X119647Y74804I-367J-159D01*
G01X102590D01*
X98096Y70310D01*
Y54110D01*
X97926Y53939D01*
G02X97243Y54222I-283J283D01*
G01Y56306D01*
G03X95842Y57707I-1402J-1D01*
G01X89542D01*
G03X88141Y56306I1J-1402D01*
G01Y44494D01*
G03X89542Y43093I1402J0D01*
G01X95842D01*
G03X97243Y44494I0J1401D01*
G01Y48198D01*
X97998D01*
Y35012D01*
X97688Y34702D01*
X75181D01*
G37*
G36*
G01X67198Y84345D02*
G02X66532Y84046I-400J0D01*
G03X65600Y84402I-933J-1045D01*
G01X62749D01*
G02X62471Y85090I-1J400D01*
G03X62902Y86100I-971J1011D01*
G01Y91100D01*
G03X61500Y92502I-1402J0D01*
G01X57900D01*
G03X56498Y91100I0J-1402D01*
G01Y90802D01*
X52188D01*
X50288Y88902D01*
X44102D01*
Y89200D01*
G03X42700Y90602I-1402J0D01*
G01X40399D01*
G02X40022Y91134I0J400D01*
G03X40102Y91600I-1322J467D01*
G01Y91898D01*
X45613D01*
G03Y96302I1387J2202D01*
G01X40102D01*
Y96600D01*
G03X38700Y98002I-1402J0D01*
G01X35849D01*
G02X35571Y98690I-1J400D01*
G03X36002Y99700I-971J1011D01*
G01Y104700D01*
G03X34600Y106102I-1402J0D01*
G01X31000D01*
G03X29990Y105671I1J-1402D01*
G02X29301Y105949I-289J277D01*
G01Y106512D01*
X29330Y106559D01*
G03X24848Y109203I-2229J1342D01*
G02X24102Y109403I-346J200D01*
G01Y110698D01*
X24400D01*
G03X25802Y112100I0J1402D01*
G01Y117100D01*
G03X24400Y118502I-1402J0D01*
G01X24102D01*
Y119388D01*
X24762Y120048D01*
X31363D01*
G03Y124452I1387J2202D01*
G01X26067D01*
G02X25675Y124929I0J400D01*
G03X25702Y125200I-1375J274D01*
G01Y125498D01*
X38588D01*
X44802Y119284D01*
G02X44519Y118602I-283J-282D01*
G01X40500D01*
G03X39098Y117200I0J-1402D01*
G01Y112200D01*
G03X40500Y110798I1402J0D01*
G01X40798D01*
Y108088D01*
X43962Y104925D01*
X43975Y104871D01*
G03X49098Y105348I2525J628D01*
G02X49780Y105607I399J-24D01*
G01X50188Y105198D01*
X51998D01*
Y104900D01*
G03X53400Y103498I1402J0D01*
G01X57098D01*
Y103150D01*
X56974Y103099D01*
G03X56098Y101800I525J-1299D01*
G01Y96800D01*
G03X57500Y95398I1402J0D01*
G01X61100D01*
G03X62502Y96800I0J1402D01*
G01Y97002D01*
G02X62843Y97144I200J0D01*
G01X63062Y96925D01*
X63075Y96871D01*
G03X64457Y95163I2525J630D01*
G02X64564Y94520I-176J-360D01*
G01X64279Y94235D01*
X64271Y94229D01*
G03X63871Y93829I1629J-2029D01*
G01X63865Y93821D01*
X63698Y93655D01*
Y93588D01*
X63670Y93541D01*
G03X66679Y89717I2230J-1341D01*
G02X67198Y89336I119J-381D01*
G01Y84345D01*
G37*
G36*
G01X43962Y36052D02*
X41902Y38112D01*
Y39798D01*
X42200D01*
G03X43602Y41200I0J1402D01*
G01Y44800D01*
G03X42200Y46202I-1402J0D01*
G01X37200D01*
G03X36190Y45771I1J-1402D01*
G02X35502Y46049I-288J277D01*
G01Y48900D01*
G03X34100Y50302I-1402J0D01*
G01X33702D01*
Y54185D01*
G02X34279Y54544I400J0D01*
G03X34900Y54398I623J1256D01*
G01X38500D01*
G03X39902Y55800I0J1402D01*
G01Y60800D01*
G03X39471Y61810I-1402J-1D01*
G02X39749Y62498I277J288D01*
G01X42600D01*
G03X44002Y63900I0J1402D01*
G01Y68900D01*
G03X42600Y70302I-1402J0D01*
G01X39002D01*
Y74750D01*
X39126Y74801D01*
G03X40002Y76100I-525J1299D01*
G01Y76398D01*
X41112D01*
X43102Y78388D01*
Y82850D01*
X43226Y82901D01*
G03X44102Y84200I-525J1299D01*
G01Y84498D01*
X52112D01*
X54012Y86398D01*
X56498D01*
Y86100D01*
G03X56929Y85090I1402J1D01*
G02X56651Y84402I-277J-288D01*
G01X53800D01*
G03X52398Y83000I0J-1402D01*
G01Y82702D01*
X48387D01*
G03Y78298I-1387J-2202D01*
G01X52398D01*
Y78000D01*
G03X53800Y76598I1402J0D01*
G01X56339D01*
G02X56685Y75999I-1J-400D01*
G03X56498Y75300I1215J-700D01*
G01Y70300D01*
G03X57374Y69001I1401J0D01*
G01X57498Y68950D01*
Y68602D01*
X53800D01*
G03X52398Y67200I0J-1402D01*
G01Y66902D01*
X48887D01*
G03Y62498I-1387J-2202D01*
G01X52398D01*
Y62200D01*
G03X53800Y60798I1402J0D01*
G01X57498D01*
Y59302D01*
X57088D01*
X54198Y56412D01*
Y46350D01*
X54074Y46299D01*
G03X53198Y45000I525J-1299D01*
G01Y40002D01*
X48887D01*
G03X45175Y36631I-1387J-2202D01*
G02X44818Y36052I-357J-179D01*
G01X43962D01*
G37*
G36*
G01X88012Y20202D02*
X87198Y21015D01*
Y26812D01*
X90002Y29616D01*
G03X90119Y29898I-283J283D01*
G02X90519Y30298I400J0D01*
G01X99512D01*
X102402Y33188D01*
Y46900D01*
X105844Y50342D01*
X118325D01*
G02X118708Y49827I0J-400D01*
G03X118760Y49486I383J-116D01*
G02X119002Y48700I-1160J-787D01*
G01Y45802D01*
X116243D01*
X109498Y39057D01*
Y30611D01*
X108389Y29502D01*
X97588D01*
X94698Y26612D01*
Y25402D01*
X92900D01*
G03X91498Y24000I0J-1402D01*
G01Y20202D01*
X88012D01*
G37*
%LPC*%
G75*
G36*
G01X135998Y29800D02*
Y34800D01*
G02X136500Y35302I502J0D01*
G01X141500D01*
G02X142002Y34800I0J-502D01*
G01Y29800D01*
G02X141500Y29298I-502J0D01*
G01X136500D01*
G02X135998Y29800I0J502D01*
G37*
G36*
G01X117598D02*
Y34800D01*
G02X118100Y35302I502J0D01*
G01X123100D01*
G02X123602Y34800I0J-502D01*
G01Y29800D01*
G02X123100Y29298I-502J0D01*
G01X118100D01*
G02X117598Y29800I0J502D01*
G37*
G36*
G01X151302D02*
G02X149900Y28398I-1402J0D01*
G01X144900D01*
G02X143498Y29800I0J1402D01*
G01Y34800D01*
G02X144900Y36202I1402J0D01*
G01X145198D01*
Y44184D01*
X144841D01*
G02X143440Y45586I1J1402D01*
G01Y50704D01*
G02X144841Y52106I1401J1D01*
G01X149959D01*
G02X151360Y50704I-1J-1402D01*
G01Y45586D01*
G02X149959Y44184I-1401J-1D01*
G01X149602D01*
Y36202D01*
X149900D01*
G02X151302Y34800I0J-1402D01*
G01Y29800D01*
G37*
G36*
G01X132902Y19500D02*
G02X131500Y18098I-1402J0D01*
G01X126500D01*
G02X125098Y19500I0J1402D01*
G01Y24500D01*
G02X126500Y25902I1402J0D01*
G01X126798D01*
Y28398D01*
X126500D01*
G02X125098Y29800I0J1402D01*
G01Y34800D01*
G02X126500Y36202I1402J0D01*
G01X131500D01*
G02X132902Y34800I0J-1402D01*
G01Y29800D01*
G02X131500Y28398I-1402J0D01*
G01X131202D01*
Y25902D01*
X131500D01*
G02X132902Y24500I0J-1402D01*
G01Y19500D01*
G37*
G36*
G01X19098Y56300D02*
Y61300D01*
G02X19600Y61802I502J0D01*
G01X24600D01*
G02X25102Y61300I0J-502D01*
G01Y56300D01*
G02X24600Y55798I-502J0D01*
G01X19600D01*
G02X19098Y56300I0J502D01*
G37*
G36*
G01X66398Y145400D02*
Y150400D01*
G02X66900Y150902I502J0D01*
G01X71900D01*
G02X72402Y150400I0J-502D01*
G01Y145400D01*
G02X71900Y144898I-502J0D01*
G01X66900D01*
G02X66398Y145400I0J502D01*
G37*
G36*
G01X28398Y139000D02*
Y151000D01*
G02X28900Y151502I502J0D01*
G01X36900D01*
G02X37402Y151000I0J-502D01*
G01Y139000D01*
G02X36900Y138498I-502J0D01*
G01X28900D01*
G02X28398Y139000I0J502D01*
G37*
G36*
G01X10398Y125200D02*
Y130200D01*
G02X10900Y130702I502J0D01*
G01X15900D01*
G02X16402Y130200I0J-502D01*
G01Y125200D01*
G02X15900Y124698I-502J0D01*
G01X10900D01*
G02X10398Y125200I0J502D01*
G37*
G36*
G01X18298Y78200D02*
Y83200D01*
G02X18800Y83702I502J0D01*
G01X23800D01*
G02X24302Y83200I0J-502D01*
G01Y78200D01*
G02X23800Y77698I-502J0D01*
G01X18800D01*
G02X18298Y78200I0J502D01*
G37*
G36*
G01X81702Y145400D02*
G02X80300Y143998I-1402J0D01*
G01X75300D01*
G02X73898Y145400I0J1402D01*
G01Y150400D01*
G02X75300Y151802I1402J0D01*
G01X80300D01*
G02X81702Y150400I0J-1402D01*
G01Y150102D01*
X88998D01*
Y150400D01*
G02X90400Y151802I1402J0D01*
G01X95400D01*
G02X96802Y150400I0J-1402D01*
G01Y145400D01*
G02X95400Y143998I-1402J0D01*
G01X90400D01*
G02X88998Y145400I0J1402D01*
G01Y145698D01*
X81702D01*
Y145400D01*
G37*
G36*
G01X105202Y133300D02*
G02X103800Y131898I-1402J0D01*
G01X98800D01*
G02X97398Y133300I0J1402D01*
G01Y138300D01*
G02X98800Y139702I1402J0D01*
G01X99098D01*
Y143998D01*
X98800D01*
G02X97398Y145400I0J1402D01*
G01Y150400D01*
G02X98800Y151802I1402J0D01*
G01X103800D01*
G02X105202Y150400I0J-1402D01*
G01Y145400D01*
G02X103800Y143998I-1402J0D01*
G01X103502D01*
Y139702D01*
X103800D01*
G02X105202Y138300I0J-1402D01*
G01Y133300D01*
G37*
G36*
G01X127502Y132400D02*
G02X126100Y130998I-1402J0D01*
G01X121100D01*
G02X119698Y132400I0J1402D01*
G01Y137400D01*
G02X121100Y138802I1402J0D01*
G01X121398D01*
Y143898D01*
X121100D01*
G02X119698Y145300I0J1402D01*
G01Y150300D01*
G02X121100Y151702I1402J0D01*
G01X126100D01*
G02X127502Y150300I0J-1402D01*
G01Y145300D01*
G02X126100Y143898I-1402J0D01*
G01X125802D01*
Y138802D01*
X126100D01*
G02X127502Y137400I0J-1402D01*
G01Y132400D01*
G37*
G36*
G01X119102Y120800D02*
G02X117700Y119398I-1402J0D01*
G01X112700D01*
G02X111298Y120800I0J1402D01*
G01Y125800D01*
G02X112700Y127202I1402J0D01*
G01X112998D01*
Y130998D01*
X112700D01*
G02X111298Y132400I0J1402D01*
G01Y137400D01*
G02X112700Y138802I1402J0D01*
G01X117700D01*
G02X119102Y137400I0J-1402D01*
G01Y132400D01*
G02X117700Y130998I-1402J0D01*
G01X117402D01*
Y127202D01*
X117700D01*
G02X119102Y125800I0J-1402D01*
G01Y120800D01*
G37*
G36*
G01X130202Y95800D02*
G02X128800Y94398I-1402J0D01*
G01X123800D01*
G02X122398Y95800I0J1402D01*
G01Y100800D01*
G02X123800Y102202I1402J0D01*
G01X128800D01*
G02X130202Y100800I0J-1402D01*
G01Y100502D01*
X133998D01*
Y105700D01*
G02X135400Y107102I1402J0D01*
G01X135698D01*
Y116698D01*
X135400D01*
G02X133998Y118100I0J1402D01*
G01Y123100D01*
G02X135400Y124502I1402J0D01*
G01X140400D01*
G02X141802Y123100I0J-1402D01*
G01Y118100D01*
G02X140400Y116698I-1402J0D01*
G01X140102D01*
Y107102D01*
X140400D01*
G02X141802Y105700I0J-1402D01*
G01Y100700D01*
G02X140400Y99298I-1402J0D01*
G01X140102D01*
Y98988D01*
X137212Y96098D01*
X130202D01*
Y95800D01*
G37*
G36*
G01X150202Y87000D02*
G02X148800Y85598I-1402J0D01*
G01X143800D01*
G02X142398Y87000I0J1402D01*
G01Y92000D01*
G02X143800Y93402I1402J0D01*
G01X144098D01*
Y99298D01*
X143800D01*
G02X142398Y100700I0J1402D01*
G01Y105700D01*
G02X143800Y107102I1402J0D01*
G01X144098D01*
Y116698D01*
X143800D01*
G02X142398Y118100I0J1402D01*
G01Y123100D01*
G02X143800Y124502I1402J0D01*
G01X148800D01*
G02X150202Y123100I0J-1402D01*
G01Y118100D01*
G02X148800Y116698I-1402J0D01*
G01X148502D01*
Y107102D01*
X148800D01*
G02X150202Y105700I0J-1402D01*
G01Y100700D01*
G02X148800Y99298I-1402J0D01*
G01X148502D01*
Y93402D01*
X148800D01*
G02X150202Y92000I0J-1402D01*
G01Y87000D01*
G37*
G36*
G01X16802Y68900D02*
G02X15400Y67498I-1402J0D01*
G01X10400D01*
G02X8998Y68900I0J1402D01*
G01Y73900D01*
G02X10400Y75302I1402J0D01*
G01X10698D01*
Y76798D01*
X10400D01*
G02X8998Y78200I0J1402D01*
G01Y83200D01*
G02X10400Y84602I1402J0D01*
G01X15400D01*
G02X16802Y83200I0J-1402D01*
G01Y78200D01*
G02X15400Y76798I-1402J0D01*
G01X15102D01*
Y75302D01*
X15400D01*
G02X16802Y73900I0J-1402D01*
G01Y68900D01*
G37*
G36*
G01X31598Y112200D02*
Y117200D01*
G02X32100Y117702I502J0D01*
G01X37100D01*
G02X37602Y117200I0J-502D01*
G01Y112200D01*
G02X37100Y111698I-502J0D01*
G01X32100D01*
G02X31598Y112200I0J502D01*
G37*
G36*
G01X38698Y99700D02*
Y104700D01*
G02X39200Y105202I502J0D01*
G01X42800D01*
G02X43302Y104700I0J-502D01*
G01Y99700D01*
G02X42800Y99198I-502J0D01*
G01X39200D01*
G02X38698Y99700I0J502D01*
G37*
G36*
G01X36698Y49400D02*
Y53000D01*
G02X37200Y53502I502J0D01*
G01X42200D01*
G02X42702Y53000I0J-502D01*
G01Y49400D01*
G02X42200Y48898I-502J0D01*
G01X37200D01*
G02X36698Y49400I0J502D01*
G37*
G54D24*
X140000Y20000D03*
X20000Y140000D03*
%LPD*%
G75*
G54D10*
X32800Y13245D03*
Y22300D03*
X147400Y48145D03*
Y57200D03*
G54D11*
X10556Y17772D03*
X125156Y52672D03*
G54D20*
X92692Y50400D03*
X74700D03*
G54D21*
X77800Y135800D03*
X69900D03*
G54D12*
X31600Y37800D03*
X24800Y36100D03*
X7400Y51700D03*
X23800Y52200D03*
X23850Y87850D03*
X32750Y122250D03*
X13500Y107900D03*
X27100D03*
X47500Y37800D03*
X51800Y51500D03*
X59700Y57200D03*
X47500Y64700D03*
X47000Y80500D03*
Y94100D03*
X49000Y99900D03*
X46500Y105500D03*
X45700Y128800D03*
X37400Y108000D03*
X44900Y134400D03*
X63100Y10200D03*
X86700Y99800D03*
X65900Y92200D03*
X65600Y97500D03*
X81300Y115500D03*
X65650Y119550D03*
X107200Y31300D03*
Y16100D03*
X107500Y37900D03*
X100600Y78700D03*
X115800Y82100D03*
X105850Y98450D03*
X122400Y76400D03*
X104400Y113700D03*
X144600Y68900D03*
Y82500D03*
G54D22*
G01X22100Y58800D02*
X25302D01*
G01X18898D02*
X22100D01*
G01D02*
Y62002D01*
G01Y55598D02*
Y58800D01*
G01X18098Y80700D02*
X21300D01*
G01D02*
Y83902D01*
G01Y77498D02*
Y80700D01*
G01X13400Y127700D02*
X16602D01*
G01X10198D02*
X13400D01*
G01D02*
Y130902D01*
G01Y124498D02*
Y127700D01*
G01X31398Y114700D02*
X34600D01*
G01X28198Y145000D02*
X32900D01*
G01X39700Y51200D02*
X42902D01*
G01X36498D02*
X39700D01*
G01D02*
Y53702D01*
G01Y48698D02*
Y51200D01*
G01X41000Y98998D02*
Y102200D01*
G01D02*
X43502D01*
G01X38498D02*
X41000D01*
G01D02*
Y105402D01*
G01X34600Y114700D02*
X37802D01*
G01X34600D02*
Y117902D01*
G01Y111498D02*
Y114700D01*
G01X32900Y145000D02*
X37602D01*
G01X32900D02*
Y151702D01*
G01Y138298D02*
Y145000D01*
G01X73300Y11298D02*
Y18000D01*
G01D02*
X78002D01*
G01X68598D02*
X73300D01*
G01D02*
Y24702D01*
G01X69400Y147900D02*
X72602D01*
G01X66198D02*
X69400D01*
G01D02*
Y151102D01*
G01Y144698D02*
Y147900D01*
G01X120600Y32300D02*
X123802D01*
G01X117398D02*
X120600D01*
G01D02*
Y35502D01*
G01Y29098D02*
Y32300D01*
G01X139000D02*
X142202D01*
G01X135798D02*
X139000D01*
G01D02*
Y35502D01*
G01Y29098D02*
Y32300D01*
G54D13*
X22100Y45000D03*
X13700D03*
Y58800D03*
X22100D03*
X21300Y71400D03*
X12900D03*
X13500Y101000D03*
X21900D03*
X12900Y80700D03*
X21300D03*
X21800Y127700D03*
X13400D03*
X13500Y114600D03*
X21900D03*
X56300Y28100D03*
X47900D03*
Y18900D03*
X56300D03*
X43000Y114700D03*
X34600D03*
X72900Y123000D03*
X81300D03*
X92900Y135800D03*
Y147900D03*
X77800D03*
X69400D03*
X120600Y32300D03*
Y22000D03*
X115200Y123300D03*
X123600D03*
X101300Y135800D03*
Y147900D03*
X115200Y147800D03*
X123600D03*
Y134900D03*
X115200D03*
X147400Y32300D03*
X139000D03*
X129000D03*
Y22000D03*
X137900Y89500D03*
X146300D03*
Y103200D03*
X137900D03*
X126300Y98300D03*
Y89900D03*
X146300Y120600D03*
X137900D03*
X137500Y147800D03*
X145900D03*
G54D23*
G01X32800Y22300D02*
X27600D01*
X26200Y20900D01*
Y9200D01*
X25100Y8100D01*
X7300D01*
X5797Y9603D01*
Y37597D01*
X7300Y39100D01*
X21100D01*
X22100Y40100D01*
Y45000D01*
G01X39800Y31600D02*
X23300D01*
X21700Y30000D01*
Y18900D01*
X20572Y17772D01*
X10556D01*
G01X24800Y36100D02*
X26500Y34400D01*
X33009D01*
X33209Y34600D01*
X37900D01*
X39800Y32700D01*
Y31600D01*
G01X32600Y66400D02*
X28300D01*
X27500Y67200D01*
Y84272D01*
X28502Y85274D01*
Y90598D01*
X25200Y93900D01*
X14600D01*
X13500Y95000D01*
Y101000D01*
G01X7400Y51700D02*
Y63500D01*
X8600Y64700D01*
X20100D01*
X21300Y65900D01*
Y71400D01*
G01X36700Y58300D02*
X33100D01*
X31500Y56700D01*
Y47200D01*
X31600Y47100D01*
G01X13700Y58800D02*
Y45000D01*
G01X12900Y71400D02*
Y80700D01*
G01X21900Y114600D02*
Y101000D01*
G01X32700Y86700D02*
Y93400D01*
X27100Y99000D01*
Y107900D01*
G01X21900Y114600D02*
Y120300D01*
X23850Y122250D01*
X32750D01*
G01X55200Y107400D02*
X51100D01*
X49500Y109000D01*
Y117700D01*
X39500Y127700D01*
X21800D01*
G01X13500Y114600D02*
Y107900D01*
G01X56300Y18900D02*
Y10800D01*
X55000Y9500D01*
X40900D01*
X37155Y13245D01*
X32800D01*
G01X47900Y28100D02*
Y18900D01*
G01X96900Y18000D02*
X87100D01*
X77000Y28100D01*
X56300D01*
G01D02*
Y24300D01*
X57000Y23600D01*
X59712D01*
X63100Y20212D01*
Y10200D01*
G01X125156Y52672D02*
Y52544D01*
X104932D01*
X100200Y47812D01*
Y34100D01*
X98600Y32500D01*
X65500D01*
X64150Y33850D01*
X43050D01*
X39700Y37200D01*
Y43000D01*
G01X56400Y42500D02*
Y39100D01*
X55100Y37800D01*
X47500D01*
G01X31600D02*
Y47100D01*
G01X40800Y66400D02*
X37400D01*
X36800Y67000D01*
Y78600D01*
G01X83676Y78707D02*
X83700Y78683D01*
Y64400D01*
X81900Y62600D01*
X69200D01*
X67900Y61300D01*
Y52000D01*
X66500Y50600D01*
X60500D01*
G01X59700Y72800D02*
Y57200D01*
G01X56400Y42500D02*
Y55500D01*
X58000Y57100D01*
X59600D01*
X59700Y57200D01*
G01X47500Y64700D02*
X55600D01*
G01X36800Y78600D02*
X40200D01*
X40900Y79300D01*
Y86700D01*
G01X59700Y88600D02*
X53100D01*
X51200Y86700D01*
X40900D01*
G01X36900Y94100D02*
X47000D01*
G01Y80500D02*
X55600D01*
G01X63400Y107400D02*
X59900D01*
X59300Y106800D01*
Y99300D01*
G01X46500Y105500D02*
X43000Y109000D01*
Y114700D01*
G01X51900Y126300D02*
Y134200D01*
X53300Y135600D01*
X55400D01*
X56500Y136700D01*
G01X56000Y118200D02*
Y125600D01*
X56700Y126300D01*
X60100D01*
G01X65650Y119550D02*
X64300Y118200D01*
X56000D01*
G01X44900Y134400D02*
Y143300D01*
X46500Y144900D01*
X56400D01*
X56500Y145000D01*
G01Y136700D02*
Y136600D01*
X57300Y135800D01*
X69900D01*
G01X56500Y145000D02*
Y136700D01*
G01X74700Y50400D02*
Y38300D01*
X73100Y36700D01*
X66200D01*
X64600Y38300D01*
Y42500D01*
G01X63800Y80500D02*
Y64700D01*
G01X86700Y99800D02*
X88300Y98200D01*
X90600D01*
X91900Y99500D01*
Y106100D01*
G01X65900Y92200D02*
Y92743D01*
X73757Y100600D01*
X77000D01*
G01X83676Y78707D02*
X83600Y78631D01*
G01X83500Y78883D02*
X83676Y78707D01*
G01D02*
X96394D01*
X96401Y78700D01*
X100600D01*
G01X65600Y97500D02*
X63400Y99700D01*
Y107400D01*
G01X63800Y80500D02*
X68200D01*
X69400Y81700D01*
Y91500D01*
X71100Y93200D01*
X91900D01*
X96000Y97300D01*
Y98000D01*
G01X72900Y123000D02*
Y108700D01*
G01X69900Y135800D02*
Y129300D01*
X71500Y127700D01*
X80400D01*
X81300Y126800D01*
Y123000D01*
G01D02*
Y115500D01*
G01X94700Y125700D02*
X88500D01*
X87100Y124300D01*
Y110100D01*
X85700Y108700D01*
X81100D01*
G01X77800Y135800D02*
X92900D01*
G01Y147900D02*
X77800D01*
G01X137800Y77100D02*
X147600D01*
X149100Y75600D01*
Y64700D01*
X147200Y62800D01*
X137500D01*
X135800Y61100D01*
Y45200D01*
X134200Y43600D01*
X117155D01*
X111700Y38145D01*
Y29699D01*
X109301Y27300D01*
X98500D01*
X96900Y25700D01*
Y18000D01*
G01X120600Y22000D02*
X107900D01*
X103900Y18000D01*
X96900D01*
G01X137800Y68900D02*
X125057D01*
X121355Y72602D01*
X103502D01*
X100298Y69398D01*
Y53198D01*
X97500Y50400D01*
X92692D01*
G01X115800Y96800D02*
Y106600D01*
X117400Y108200D01*
X129200D01*
X130500Y109500D01*
Y146300D01*
X132000Y147800D01*
X137500D01*
G01X100600Y78700D02*
X106100D01*
X107700Y80300D01*
Y92700D01*
G01X115800Y82100D02*
Y88600D01*
G01X100100Y106100D02*
Y99300D01*
X100950Y98450D01*
X105850D01*
G01X102800Y121600D02*
X95600D01*
X94700Y122500D01*
Y125700D01*
G01X102800Y121600D02*
X107900D01*
X108600Y122300D01*
Y146900D01*
X109500Y147800D01*
X115200D01*
G01X100100Y106100D02*
X103200D01*
X103232Y106068D01*
X109268D01*
X110400Y107200D01*
Y112800D01*
X111300Y113700D01*
X122800D01*
X123600Y114500D01*
Y123300D01*
G01X94700Y117500D02*
X103400D01*
X104400Y116500D01*
Y113700D01*
G01X115200Y123300D02*
Y134900D01*
G01X101300Y147900D02*
Y135800D01*
G01X147400Y32300D02*
Y48145D01*
G01X129000Y22000D02*
Y32300D01*
G01X144600Y68900D02*
X137800D01*
G01X145900Y147800D02*
Y130000D01*
X147500Y128400D01*
X151532D01*
X153132Y126800D01*
Y58132D01*
X152200Y57200D01*
X147400D01*
G01X137800Y77100D02*
X127800D01*
X126300Y78600D01*
Y89900D01*
G01X144600Y82500D02*
X138800D01*
X137900Y83400D01*
Y89500D01*
G01X126300Y98300D02*
X136300D01*
X137900Y99900D01*
Y103200D01*
G01X129700Y73000D02*
X125800D01*
X122400Y76400D01*
G01X146300Y89500D02*
Y103200D01*
G01X137900Y120600D02*
Y103200D01*
G01X146300Y120600D02*
Y103200D01*
G01X123600Y147800D02*
Y134900D01*
G54D14*
X32600Y66400D03*
X32800Y102200D03*
X32700Y86700D03*
X56400Y42500D03*
X36700Y58300D03*
X40800Y66400D03*
X59700Y72800D03*
X55600Y64700D03*
X60500Y50600D03*
X59300Y99300D03*
X36900Y94100D03*
X41000Y102200D03*
X36800Y78600D03*
X40900Y86700D03*
X59700Y88600D03*
X55600Y80500D03*
X56000Y118200D03*
X60100Y126300D03*
X51900D03*
X63400Y107400D03*
X55200D03*
X64600Y42500D03*
X63800Y64700D03*
X77000Y100600D03*
X63800Y80500D03*
X81100Y108700D03*
X72900D03*
X91900Y106100D03*
X96000Y98000D03*
X100100Y106100D03*
G54D15*
X31600Y47100D03*
X39700Y43000D03*
Y51200D03*
X107700Y92700D03*
X115800Y88600D03*
Y96800D03*
X102800Y121600D03*
X94700Y125700D03*
Y117500D03*
X129700Y73000D03*
X137800Y68900D03*
Y77100D03*
G54D16*
X20000Y140000D03*
X140000Y20000D03*
G54D17*
X32900Y145000D03*
X56500D03*
X73300Y18000D03*
X96900D03*
G54D18*
X39800Y31600D03*
G54D19*
X83676Y78707D03*
M02*
